<?xml version="1.0" encoding="UTF-8" standalone="no"?>
<svg
   version="1.2"
   width="1016"
   height="360"
   viewBox="0 0 1016 359.99997"
   preserveAspectRatio="xMidYMid"
   id="svg263"
   sodipodi:docname="kanopy.svg"
   inkscape:version="1.4.3 (0d15f75042, 2025-12-25)"
   xmlns:inkscape="http://www.inkscape.org/namespaces/inkscape"
   xmlns:sodipodi="http://sodipodi.sourceforge.net/DTD/sodipodi-0.dtd"
   xmlns="http://www.w3.org/2000/svg"
   xmlns:svg="http://www.w3.org/2000/svg">
  <defs
     id="defs263" />
  <sodipodi:namedview
     id="namedview263"
     pagecolor="#ffffff"
     bordercolor="#000000"
     borderopacity="0.25"
     inkscape:showpageshadow="2"
     inkscape:pageopacity="0.0"
     inkscape:pagecheckerboard="0"
     inkscape:deskcolor="#d1d1d1"
     inkscape:zoom="0.79980469"
     inkscape:cx="767.68742"
     inkscape:cy="512"
     inkscape:window-width="1920"
     inkscape:window-height="1028"
     inkscape:window-x="0"
     inkscape:window-y="0"
     inkscape:window-maximized="1"
     inkscape:current-layer="g237"
     showguides="true">
    <sodipodi:guide
       position="-97.445665,122.41757"
       orientation="1,0"
       id="guide2"
       inkscape:locked="false" />
    <sodipodi:guide
       position="604.40537,119.94627"
       orientation="0,-1"
       id="guide3"
       inkscape:locked="false" />
    <sodipodi:guide
       position="639.91209,88.830274"
       orientation="0,-1"
       id="guide4"
       inkscape:locked="false" />
    <sodipodi:guide
       position="734.16361,213.75822"
       orientation="0,-1"
       id="guide5"
       inkscape:locked="false" />
  </sodipodi:namedview>
  <g
     fill="#fca71c"
     id="g6"
     transform="translate(-260.06349,-325.07937)">
    <path
       d="m 487.02,651.45 c -1.97,-2.22 -2.09,-5.29 -1.85,-34.34 l 0.37,-31.88 h 28.92 28.92 l 0.37,31.63 0.25,31.63 -2.95,1.97 c -2.22,1.48 -8.12,2.09 -27.32,2.71 -23.38,0.62 -24.62,0.62 -26.71,-1.72 z"
       id="path5" />
    <path
       d="m 484.92,568.62 v -7.38 H 514.46 544 v 7.38 7.38 h -29.54 -29.54 z"
       id="path6" />
  </g>
  <g
     fill="#82de5d"
     id="g9"
     transform="translate(-260.06349,-325.07937)">
    <path
       d="m 585.6,454.77 c -1.35,-1.72 -2.22,-5.17 -2.22,-8.49 0,-5.42 0.12,-5.66 3.69,-5.66 5.29,0 27.94,5.05 30.28,6.65 1.23,0.98 1.6,2.46 1.11,4.55 -0.74,2.83 -1.6,3.2 -12.06,4.55 -15.88,2.09 -18.34,1.97 -20.8,-1.6 z"
       id="path7" />
    <path
       d="m 325.66,429.29 c 8.25,-16.62 16.37,-27.69 29.17,-40 30.4,-29.29 67.94,-46.28 123.69,-56.25 3.57,-0.62 3.94,-0.37 3.94,2.22 0,3.32 -14.4,19.2 -17.35,19.2 -0.98,0 -4.18,3.69 -7.14,8 -5.78,8.49 -15.02,17.85 -17.6,17.85 -1.48,0 -3.45,1.72 -11.08,9.6 -3.57,3.57 -4.43,3.94 -11.57,3.94 -4.31,0 -8,0.49 -8.49,1.11 -0.37,0.62 -3.69,1.6 -7.51,2.09 -5.17,0.62 -8,1.85 -11.94,5.05 -7.63,6.28 -13.42,12.43 -19.08,20.31 -8.74,11.94 -10.09,12.8 -25.35,15.63 -7.51,1.48 -16.25,2.58 -19.57,2.58 H 320 l 5.66,-11.32 z"
       id="path8" />
    <path
       d="m 424.98,423.75 c -1.6,-0.25 -2.83,-1.11 -2.83,-1.72 0,-0.62 -1.11,-1.11 -2.58,-1.11 -2.22,0 -2.46,-0.62 -2.09,-5.17 0.37,-5.17 0.62,-5.42 8.98,-9.85 15.75,-8.37 32.86,-12.68 56.37,-14.15 l 11.94,-0.62 v 4.31 c 0,4.43 -1.85,5.78 -8.12,5.78 -1.6,0 -2.95,0.98 -3.32,2.46 -0.49,1.97 -1.72,2.46 -6.28,2.46 -3.08,0 -5.66,-0.49 -5.66,-1.23 0,-0.62 -1.6,-1.23 -3.69,-1.23 -3.08,0 -3.69,0.49 -3.69,2.95 0,1.72 -0.49,4.43 -1.23,6.15 -1.11,3.08 -1.6,3.2 -11.08,3.2 -7.88,0 -9.85,0.37 -9.85,1.85 0,0.98 -0.74,1.85 -1.6,1.85 -0.86,0 -2.22,1.11 -3.08,2.46 -1.48,2.46 -5.29,2.95 -12.18,1.6 z"
       id="path9" />
  </g>
  <g
     fill="#5dd368"
     id="g11"
     transform="translate(-260.06349,-325.07937)">
    <path
       d="m 592,500.92 c 0,-0.62 -1.11,-1.23 -2.46,-1.23 -1.35,0 -2.46,-0.49 -2.46,-1.23 0,-0.62 -0.62,-1.23 -1.23,-1.23 -1.35,0 -5.54,-4.18 -9.97,-9.6 -2.22,-2.83 -2.34,-2.95 -8.98,-0.98 -12.68,3.69 -20.18,2.34 -22.28,-4.18 -0.37,-1.35 -1.35,-2.46 -1.97,-2.46 -0.62,0 -1.11,-1.85 -1.11,-4.06 0,-3.45 0.86,-4.8 5.29,-8 6.52,-4.8 19.69,-17.48 25.97,-25.11 2.71,-3.45 5.78,-5.91 7.14,-5.91 1.23,0 1.97,0.49 1.6,1.23 -0.37,0.62 1.72,1.85 4.68,2.71 5.17,1.35 5.29,1.48 3.08,3.69 -2.71,2.71 -2.71,3.32 0.25,6.89 2.22,2.71 2.46,2.71 13.42,1.23 6.15,-0.86 11.2,-1.97 11.2,-2.46 0,-0.49 -0.86,-0.49 -2.09,-0.12 -1.23,0.49 -1.72,0.25 -1.11,-0.62 0.37,-0.74 -0.37,-1.6 -1.85,-2.09 -4.68,-1.6 -1.48,-1.97 4.18,-0.62 5.05,1.35 5.54,1.85 6.03,5.66 0.86,6.89 -1.23,23.14 -3.69,29.66 -1.23,3.45 -4.43,9.23 -6.89,13.05 -4.68,6.89 -4.68,7.02 -10.71,7.02 -3.32,0 -6.03,-0.49 -6.03,-1.23 z"
       id="path10" />
    <path
       d="m 449.85,445.29 c -14.65,-4.8 -35.32,-9.48 -46.77,-10.46 l -9.23,-0.74 v -4.06 c 0,-3.45 0.98,-4.8 7.14,-9.48 3.82,-2.95 9.85,-7.26 13.17,-9.35 8.25,-5.29 3.2,-3.82 -12.31,3.45 -11.57,5.54 -19.57,11.32 -22.4,16.62 -0.98,1.72 -3.94,2.58 -12.68,3.94 -6.28,0.98 -17.85,3.32 -25.6,5.42 -7.75,1.97 -16,3.69 -18.22,3.69 -3.94,0 -4.06,-0.12 -2.95,-3.2 1.23,-3.2 4.06,-6.65 5.54,-6.65 0.37,0 0.37,0.62 0,1.23 -0.49,0.74 0.62,1.23 2.34,1.23 1.72,0 3.2,-0.49 3.2,-1.11 0,-0.49 1.35,-0.86 2.95,-0.74 2.71,0.37 5.66,-0.12 16.12,-2.58 1.35,-0.37 3.08,-0.74 3.69,-0.86 2.83,-0.62 6.65,-4.43 12.31,-11.94 6.15,-8.37 16.25,-18.71 23.02,-23.75 2.71,-1.97 5.91,-2.95 9.48,-3.08 2.95,-0.12 6.03,-0.74 6.77,-1.48 0.62,-0.62 4.68,-1.23 8.74,-1.23 7.02,0 7.88,-0.37 11.45,-3.94 7.63,-7.88 9.6,-9.6 11.08,-9.6 2.71,0 11.94,-9.48 18.22,-18.83 7.38,-11.08 6.89,-10.34 7.51,-8.49 0.49,1.23 0.98,1.23 2.34,0.12 0.98,-0.74 1.48,-1.85 1.11,-2.34 -0.37,-0.62 0.49,-1.85 1.85,-2.83 1.35,-0.86 2.09,-2.09 1.48,-2.71 -0.49,-0.62 -0.25,-0.62 0.62,-0.12 0.86,0.49 2.71,-0.37 4.31,-1.97 l 2.71,-2.71 -2.95,-0.86 c -1.72,-0.49 -2.83,-0.98 -2.46,-1.11 7.38,-2.58 43.57,-5.05 46.65,-3.2 0.74,0.49 1.35,2.71 1.35,5.05 0,4.06 -0.25,4.18 -5.78,5.05 -6.4,0.86 -10.95,4.68 -16.12,13.05 -4.92,7.88 -15.63,16.62 -40.37,32.49 -10.09,6.52 -17.23,11.45 -15.88,10.95 20.31,-7.26 73.23,-13.66 73.23,-8.86 0,1.23 3.2,1.97 12.18,2.46 17.72,1.23 19.82,1.85 19.82,5.42 0,4.18 -1.97,7.63 -7.88,13.29 -5.66,5.54 -9.6,8 -12.55,8 -2.34,0 -11.57,4.92 -11.57,6.28 0,0.49 -2.22,1.23 -4.92,1.72 -2.71,0.49 -4.92,1.48 -4.92,2.22 0,1.72 -5.66,4.55 -8.86,4.55 -1.23,0 -2.22,0.62 -2.22,1.23 0,0.74 -0.98,1.23 -2.22,1.23 -1.11,0 -2.83,1.11 -3.69,2.46 -0.86,1.35 -2.34,2.46 -3.32,2.46 -1.11,0 -2.22,1.48 -2.58,3.57 -0.86,4.18 -3.08,5.05 -13.42,4.92 -4.68,-0.12 -11.45,-1.48 -18.46,-3.82 z m -16.62,-28.8 c -1.11,-1.11 -0.62,-1.48 1.72,-1.23 2.46,0.37 3.2,-0.12 3.2,-1.97 0,-1.35 1.35,-2.71 3.08,-3.45 1.72,-0.62 3.08,-1.72 3.08,-2.34 0,-1.85 3.32,-0.25 4.18,1.97 0.49,1.35 0.25,1.6 -1.11,1.11 -0.98,-0.37 -1.85,-0.25 -1.85,0.37 0,0.62 2.83,0.98 6.28,0.86 5.42,-0.12 6.52,-0.49 7.38,-2.83 0.86,-2.22 0.62,-2.83 -1.11,-2.83 -1.85,0 -1.85,-0.25 -0.25,-1.23 0.98,-0.62 1.35,-1.23 0.86,-1.23 -0.49,0 -2.34,0.86 -3.94,1.97 -2.95,1.97 -3.08,1.85 -3.08,-0.86 0,-1.48 0.37,-2.34 0.74,-1.97 0.49,0.37 1.97,0.12 3.45,-0.62 1.35,-0.86 2.95,-1.6 3.57,-1.72 0.49,-0.12 0.98,-0.25 1.23,-0.37 0.12,-0.12 2.58,-0.37 5.42,-0.62 2.95,-0.12 5.78,-0.74 6.52,-1.48 2.09,-2.09 -11.82,0.12 -23.38,3.69 -10.83,3.32 -27.2,11.45 -27.94,13.66 -0.49,1.48 4.43,1.72 6.52,0.25 0.86,-0.49 1.72,0 2.22,1.11 0.37,0.98 0.25,1.48 -0.49,1.11 -0.74,-0.37 -1.23,-0.25 -1.23,0.49 0,1.72 2.83,2.46 4.68,0.98 1.11,-0.86 1.11,-1.6 0.25,-2.83 z m 57.6,-20.8 c 0.37,-0.37 -2.58,-0.62 -6.65,-0.62 -5.17,0 -6.77,0.37 -5.42,1.23 1.85,1.23 10.71,0.74 12.06,-0.62 z"
       id="path11" />
  </g>
  <g
     fill="#41da7b"
     id="g22"
     transform="translate(-260.06349,-325.07937)">
    <path
       d="m 416.37,662.15 c -1.48,-0.62 -3.08,-2.34 -3.45,-3.94 -0.37,-1.6 -0.49,-18.58 -0.37,-37.91 l 0.37,-35.08 29.29,-0.37 29.17,-0.25 v 33.6 c 0,33.35 0,33.72 -2.71,36.18 -2.34,2.09 -6.65,3.08 -22.52,5.17 -10.83,1.48 -21.29,2.95 -23.38,3.2 -1.97,0.25 -4.92,0 -6.4,-0.62 z"
       id="path12" />
    <path
       d="m 412.55,568.98 0.37,-7.14 29.29,-0.37 29.17,-0.25 v 7.38 7.38 h -29.54 -29.66 l 0.37,-7.02 z"
       id="path13" />
    <path
       d="m 580.92,516.31 c 0,-2.71 0.49,-3.08 4.31,-3.08 5.29,0 5.42,1.23 0.74,4.06 -4.68,2.71 -5.05,2.71 -5.05,-0.98 z"
       id="path14" />
    <path
       d="m 598.15,503.14 c 0,-4.18 1.35,-6.28 4.31,-6.65 0.74,0 2.22,-0.25 3.45,-0.25 1.11,-0.12 1.97,-0.86 1.85,-1.6 -0.25,-0.74 0.37,-1.72 1.23,-1.97 2.58,-0.98 0.12,2.95 -5.78,9.48 l -4.92,5.54 -0.12,-4.55 z"
       id="path15" />
    <path
       d="m 612.55,486.77 c 1.11,-2.34 2.22,-4.06 2.58,-3.82 0.49,0.62 -3.2,8.12 -4.06,8.12 -0.37,0 0.37,-1.97 1.48,-4.31 z"
       id="path16" />
    <path
       d="m 319.26,443.57 c 0.37,-1.11 0.74,-2.46 0.74,-3.08 0,-0.49 0.74,-0.74 1.72,-0.37 0.98,0.37 4.68,-0.25 8.25,-1.23 8.25,-2.46 9.72,-2.46 9.72,0.25 0,1.48 -1.97,2.71 -7.38,4.31 -9.35,2.71 -14.03,2.83 -13.05,0.12 z"
       id="path17" />
    <path
       d="m 577.23,440 c 0,-3.82 0.37,-4.31 3.2,-4.31 2.71,0 2.95,0.37 1.85,1.72 -0.86,0.98 -0.98,1.97 -0.25,2.22 0.62,0.12 -0.25,1.35 -1.85,2.58 l -2.95,2.22 z"
       id="path18" />
    <path
       d="m 538.58,402.71 c 0.74,-0.49 1.97,-1.97 2.71,-3.45 1.72,-3.32 -0.12,-5.42 -5.17,-5.42 -1.97,0 -3.32,-0.37 -2.83,-0.74 0.37,-0.37 4.06,-0.37 8.12,0.12 6.89,0.74 7.51,1.11 7.51,3.94 0,4.18 -2.71,6.52 -7.63,6.52 -2.22,0 -3.45,-0.49 -2.71,-0.98 z"
       id="path19" />
    <path
       d="m 522.22,391.75 c 1.85,-0.25 4.55,-0.25 6.15,0 1.48,0.25 0,0.49 -3.45,0.49 -3.32,0 -4.68,-0.25 -2.71,-0.49 z"
       id="path20" />
    <path
       d="m 515.69,348.06 c 0,-1.6 -1.11,-4.43 -2.46,-6.52 -1.72,-2.71 -1.97,-3.94 -0.98,-5.29 1.11,-1.23 1.6,-1.23 2.34,0 0.62,0.98 0.98,0.62 0.74,-1.23 -0.12,-1.85 -0.98,-2.71 -2.71,-2.83 -2.09,-0.12 -1.97,-0.25 0.62,-1.11 4.55,-1.35 5.91,0.74 6.89,10.83 0.74,8.49 0.74,8.86 -1.85,8.86 -1.85,0 -2.58,-0.74 -2.58,-2.71 z"
       id="path21" />
    <path
       d="m 499.08,332.18 -7.38,-0.74 h 8.98 c 4.8,0 8.86,0.12 8.86,0.25 0,0.98 -3.94,1.23 -10.46,0.49 z"
       id="path22" />
  </g>
  <g
     fill="#22bfb1"
     id="g40"
     transform="translate(-260.06349,-325.07937)">
    <path
       d="m 361.6,536.98 c -4.06,-0.98 -2.46,-4.06 2.09,-4.06 3.45,0 4.31,0.49 4.31,2.46 0,2.46 -1.72,2.83 -6.4,1.6 z"
       id="path23" />
    <path
       d="m 473.6,536.74 c -3.82,-0.37 -7.38,-1.23 -7.88,-1.72 -0.62,-0.49 5.78,-7.75 14.03,-16 8.25,-8.25 15.02,-15.75 15.02,-16.62 0,-0.74 0.86,-1.48 1.85,-1.48 1.23,0 1.85,1.23 1.85,4.06 0,5.29 -9.97,15.63 -15.14,15.63 -2.83,0 -3.32,0.49 -3.32,3.57 0,1.97 -0.86,4.18 -1.85,5.05 -3.2,2.71 -1.97,3.69 4.31,3.69 5.29,0 6.15,0.37 6.15,2.46 0,2.71 -1.35,2.83 -15.02,1.35 z"
       id="path24" />
    <path
       d="m 510.77,535.51 c 0,-1.85 1.35,-2.34 8.98,-3.08 4.8,-0.37 14.15,-1.85 20.55,-3.2 13.91,-2.95 17.23,-3.08 17.23,-0.74 0,2.09 -11.32,4.92 -29.54,7.51 -16.74,2.34 -17.23,2.34 -17.23,-0.49 z"
       id="path25" />
    <path
       d="m 352.62,536 c -0.62,-0.25 -3.32,-0.74 -5.78,-1.23 -2.95,-0.49 -4.68,-1.35 -4.68,-2.46 0,-2.09 1.85,-2.22 10.34,-1.11 4.43,0.62 5.66,1.35 5.66,3.08 0,2.22 -2.22,2.83 -5.54,1.72 z"
       id="path26" />
    <path
       d="m 402.71,533.78 c 0.49,-2.34 -0.12,-3.94 -2.22,-5.91 -1.6,-1.6 -2.95,-3.45 -2.95,-4.43 0,-0.86 -0.74,-1.6 -1.6,-1.6 -2.95,0 -6.03,-4.55 -5.54,-8.12 0.37,-3.45 0.74,-3.08 12.68,8.37 6.77,6.52 11.94,12.18 11.57,12.55 -0.37,0.37 -3.32,1.11 -6.65,1.6 -5.91,0.74 -5.91,0.74 -5.29,-2.46 z"
       id="path27" />
    <path
       d="m 427.08,526.15 -2.83,-3.08 h 3.82 c 3.32,0 3.94,0.49 3.94,3.08 0,1.72 -0.49,3.08 -0.98,3.08 -0.62,0 -2.34,-1.35 -3.94,-3.08 z"
       id="path28" />
    <path
       d="m 448,525.78 c 0,-4.43 1.97,-6.4 6.52,-6.4 h 3.45 l -2.58,3.69 c -1.48,2.09 -3.69,4.31 -5.05,4.92 -2.09,1.11 -2.34,0.86 -2.34,-2.22 z"
       id="path29" />
    <path
       d="m 315.45,526.15 c -5.29,-2.22 -5.17,-4.31 0.25,-4.31 3.82,0 4.31,0.37 4.31,3.08 0,1.72 -0.12,3.08 -0.25,3.08 -0.25,-0.12 -2.22,-0.86 -4.31,-1.85 z"
       id="path30" />
    <path
       d="m 566.15,523.69 c 0,-2.71 0.49,-3.08 4.43,-3.08 5.42,0 5.17,2.22 -0.49,4.55 -3.82,1.6 -3.94,1.48 -3.94,-1.48 z"
       id="path31" />
    <path
       d="m 428.31,515.08 c 0,-4.55 2.95,-6.15 3.94,-2.09 0.74,3.32 -0.25,6.4 -2.22,6.4 -1.11,0 -1.72,-1.35 -1.72,-4.31 z"
       id="path32" />
    <path
       d="m 292.68,514.71 c -4.55,-2.71 -4.31,-3.94 0.86,-3.94 3.82,0 4.31,0.37 4.31,3.08 0,3.57 -0.74,3.69 -5.17,0.86 z"
       id="path33" />
    <path
       d="m 460.31,513.48 c 0,-2.83 2.09,-5.54 10.34,-13.66 l 10.46,-10.09 6.52,0.37 6.52,0.37 0.37,4.68 c 0.49,5.05 -0.86,5.91 -3.2,2.09 -2.71,-4.43 -6.52,-2.95 -15.63,6.28 -4.8,4.8 -10.09,9.72 -11.94,11.08 l -3.45,2.46 v -3.57 z"
       id="path34" />
    <path
       d="m 428.31,496.62 c 0,-6.28 0.25,-6.77 2.95,-6.77 2.22,0 2.83,0.62 2.58,2.22 -0.25,1.11 -0.86,4.18 -1.23,6.77 -0.49,2.83 -1.35,4.55 -2.46,4.55 -1.35,0 -1.85,-1.72 -1.85,-6.77 z"
       id="path35" />
    <path
       d="m 398.15,497.97 -4.92,-4.31 4.68,-0.12 c 4.92,0 6.28,1.48 5.54,6.15 -0.37,2.46 -0.62,2.46 -5.29,-1.72 z"
       id="path36" />
    <path
       d="m 265.35,492.43 c -1.48,-2.34 5.29,-12.43 15.14,-22.65 9.11,-9.48 23.51,-19.82 34.09,-24.37 2.95,-1.35 5.42,-2.95 5.42,-3.57 0,-0.62 0.98,-0.98 2.22,-0.98 1.11,0 8.25,-1.6 15.63,-3.82 7.51,-2.09 18.83,-4.55 25.23,-5.54 6.4,-0.98 11.82,-2.34 12.06,-3.08 0.25,-0.86 4.92,-1.35 12.8,-1.35 10.22,0 12.18,0.25 10.95,1.72 -1.11,1.35 0.37,1.72 7.88,2.34 19.2,1.72 57.48,12.18 58.22,16 0.37,1.6 -0.49,2.09 -3.94,2.09 -2.46,0 -4.43,-0.49 -4.43,-1.11 0,-0.62 -1.85,-1.35 -3.94,-1.6 -2.22,-0.37 -10.46,-2.34 -18.22,-4.31 -18.58,-4.92 -28.31,-6.28 -28.31,-3.69 0,2.58 -7.38,10.22 -11.08,11.32 -2.95,0.98 -14.77,12.43 -14.77,14.4 0,0.49 -0.49,0.98 -1.23,0.98 -0.62,0 -2.46,1.11 -3.94,2.46 -5.54,5.05 -6.52,5.78 -9.23,7.26 -1.48,0.74 -3.94,1.35 -5.54,1.35 -3.08,0 -10.58,4.06 -12.92,7.02 -1.72,2.09 -15.26,4.55 -40.37,7.02 -32.12,3.2 -40.74,3.69 -41.72,2.09 z"
       id="path37" />
    <path
       d="m 576,439.38 c 0,-1.97 1.6,-6.28 3.57,-9.48 4.31,-7.26 8.12,-18.71 6.77,-20.06 -1.35,-1.35 -23.02,-8.25 -29.05,-9.35 -3.45,-0.49 -4.68,-1.35 -4.68,-3.08 0,-1.35 0.49,-2.34 1.11,-2.34 2.71,0 18.58,4.06 29.29,7.51 11.2,3.57 11.45,3.82 10.71,7.02 -1.48,6.03 -6.28,18.22 -10.34,25.85 -4.31,8.25 -7.38,9.97 -7.38,3.94 z"
       id="path38" />
    <path
       d="m 512,382.15 c 0,-3.45 0.49,-4.31 2.46,-4.31 2.58,0 2.95,1.23 1.72,5.91 -1.23,4.43 -4.18,3.32 -4.18,-1.6 z"
       id="path39" />
    <path
       d="m 514.46,372.31 c 0,-3.45 0.49,-4.31 2.46,-4.31 2.58,0 2.95,1.23 1.72,5.91 -1.23,4.43 -4.18,3.32 -4.18,-1.6 z"
       id="path40" />
  </g>
  <g
     fill="#3fc882"
     id="g57"
     transform="translate(-260.06349,-325.07937)">
    <path
       d="m 413.17,658.83 c -0.49,-0.37 -0.74,-9.72 -0.62,-20.55 l 0.25,-19.82 0.62,20.31 c 0.86,22.52 0.86,21.29 -0.25,20.06 z"
       id="path41" />
    <path
       d="m 412.68,604.31 c 0,-4.43 0.25,-6.15 0.49,-3.94 0.25,2.09 0.25,5.78 0,8 -0.25,2.09 -0.49,0.37 -0.49,-4.06 z"
       id="path42" />
    <path
       d="m 412.55,568.98 0.37,-7.14 24.62,-0.12 c 17.85,-0.12 22.89,0.12 18.46,0.86 -3.32,0.62 -14.15,0.98 -24,0.86 l -17.85,-0.37 0.37,6.52 c 0.37,4.18 0,6.4 -0.98,6.4 -0.86,0 -1.23,-2.34 -0.98,-7.02 z"
       id="path43" />
    <path
       d="m 425.6,575.14 c 3.57,-0.25 9.11,-0.25 12.31,0 3.2,0.25 0.25,0.37 -6.52,0.37 -6.77,0 -9.35,-0.12 -5.78,-0.37 z"
       id="path44" />
    <path
       d="m 453.91,575.14 c 1.48,-0.25 3.94,-0.25 5.54,0 1.48,0.25 0.25,0.49 -2.83,0.49 -3.08,0 -4.31,-0.25 -2.71,-0.49 z"
       id="path45" />
    <path
       d="m 470.03,575.14 c -0.12,-0.62 0,-3.08 0.12,-5.78 0.12,-2.58 -0.49,-5.17 -1.23,-5.66 -0.98,-0.62 -0.86,-1.11 0.49,-1.6 1.72,-0.62 1.97,0.37 1.97,6.52 0,4.06 -0.25,7.38 -0.62,7.38 -0.37,0 -0.62,-0.37 -0.74,-0.86 z"
       id="path46" />
    <path
       d="m 556.31,527.51 c 0,-3.08 2.58,-4.43 8.98,-4.43 5.17,0 3.45,2.71 -3.2,5.17 l -5.78,2.22 v -2.95 z"
       id="path47" />
    <path
       d="m 573.54,520.25 c 0,-2.09 1.48,-3.69 5.29,-5.78 2.83,-1.6 8.86,-6.4 13.29,-10.71 7.38,-7.14 11.08,-9.72 8.98,-6.4 -0.49,0.86 0.12,0.86 1.97,-0.12 4.31,-2.34 4.06,-0.74 -0.98,5.66 -5.42,6.89 -10.22,10.83 -20.06,16.37 -8.25,4.55 -8.49,4.55 -8.49,0.98 z"
       id="path48" />
    <path
       d="m 493.17,499.82 c -2.71,-4.68 -2.71,-5.05 0.98,-5.05 2.71,0 3.08,0.49 3.08,4.31 0,5.29 -1.23,5.42 -4.06,0.74 z"
       id="path49" />
    <path
       d="m 537.85,475.69 c 0,-4.06 0.25,-4.31 4.18,-4.31 3.94,0 4.18,0.25 4.18,4.31 0,4.06 -0.25,4.31 -4.18,4.31 -3.94,0 -4.18,-0.25 -4.18,-4.31 z"
       id="path50" />
    <path
       d="m 548.92,468.43 c 0,-4.31 0.12,-4.43 4.43,-4.43 5.17,0 5.05,1.6 -0.49,5.91 l -3.94,3.08 v -4.55 z"
       id="path51" />
    <path
       d="m 569.85,448.86 c 0,-3.08 0.62,-4.92 1.85,-5.29 0.98,-0.49 1.85,-1.48 1.85,-2.46 0,-1.11 1.35,-1.72 3.69,-1.72 2.09,0 3.69,0.37 3.69,0.98 0,0.49 -2.46,3.69 -5.54,7.02 l -5.42,6.15 z"
       id="path52" />
    <path
       d="m 460.31,449.11 c -7.75,-3.2 -33.85,-10.09 -45.78,-12.06 -7.88,-1.35 -14.03,-3.08 -15.14,-4.31 -1.11,-1.11 -3.08,-1.97 -4.43,-1.97 -1.48,0 -2.34,-0.86 -2.34,-2.46 0,-1.97 0.86,-2.46 4.55,-2.46 4.31,0 4.43,0 2.22,2.46 -2.22,2.46 -2.09,2.46 4.43,2.46 4.92,0 6.15,0.37 4.8,1.35 -1.35,0.86 -0.12,0.98 4.18,0.37 4.31,-0.62 5.78,-0.49 5.17,0.62 -0.62,0.86 0.25,1.11 2.95,0.62 2.22,-0.49 3.69,-0.25 3.69,0.49 0,0.62 0.98,0.98 2.34,0.62 1.23,-0.37 2.71,0 3.08,0.62 0.37,0.74 1.85,0.98 3.2,0.62 1.35,-0.37 2.46,-0.12 2.46,0.62 0,0.74 1.23,0.98 2.71,0.49 1.85,-0.49 2.34,-0.25 1.6,0.86 -0.62,1.23 -0.25,1.35 1.72,0.74 1.35,-0.37 2.58,-0.25 2.58,0.37 0,0.74 1.11,0.98 2.46,0.62 1.35,-0.37 2.46,0 2.46,0.74 0,0.62 0.86,0.98 1.85,0.62 0.98,-0.49 1.85,-0.25 1.85,0.25 0,0.62 1.48,1.23 3.2,1.35 1.85,0 3.57,0.62 4.06,1.23 0.98,1.35 8.25,1.97 13.05,1.11 2.58,-0.49 4.31,-1.72 4.68,-3.2 0.37,-1.48 1.72,-2.46 3.2,-2.46 3.69,0 8.98,-2.58 11.94,-5.78 1.48,-1.6 5.05,-3.94 8,-5.29 2.95,-1.48 8.74,-4.68 12.8,-7.38 4.06,-2.58 9.35,-5.78 11.69,-6.89 4.92,-2.46 17.48,-14.52 16.37,-15.75 -0.49,-0.37 0.12,-0.74 1.23,-0.74 2.46,0 2.83,-1.97 0.62,-2.95 -2.34,-1.11 9.72,0.25 15.14,1.72 3.94,1.11 4.8,1.85 4.8,4.43 0,7.75 -9.6,19.82 -22.28,28.31 -11.45,7.63 -22.15,11.57 -45.54,16.98 -19.2,4.43 -29.78,5.29 -35.57,3.08 z"
       id="path53" />
    <path
       d="m 320,442.34 c 0,-0.86 0.98,-1.48 2.22,-1.48 1.11,0 7.88,-1.6 15.02,-3.69 14.65,-4.18 30.4,-7.02 33.97,-6.03 1.48,0.37 0.74,0.62 -1.72,0.74 -6.77,0.25 -27.32,4.8 -38.77,8.49 -7.75,2.58 -10.71,3.08 -10.71,1.97 z"
       id="path54" />
    <path
       d="m 374.15,431.51 c 0,-0.49 0.62,-1.97 1.23,-3.32 0.98,-1.72 2.58,-2.34 6.77,-2.34 4.68,0 5.54,0.37 5.54,2.46 0,1.97 -0.86,2.46 -3.94,2.46 -2.22,0 -5.29,0.37 -6.77,0.74 -1.6,0.49 -2.83,0.37 -2.83,0 z"
       id="path55" />
    <path
       d="m 508.31,389.91 c 0,-0.86 0.74,-4.06 1.72,-7.14 0.86,-3.08 1.35,-7.63 0.98,-10.09 -0.49,-4.92 1.72,-16.62 3.82,-19.2 0.62,-0.86 0.86,-4.43 0.37,-8.74 -0.74,-5.91 -0.49,-7.38 1.11,-8 1.11,-0.37 1.6,-0.25 1.23,0.49 -0.37,0.74 -0.25,1.23 0.37,1.23 1.48,0 1.72,2.22 1.85,16.62 0.25,9.23 -0.49,15.38 -2.71,24.37 -2.58,10.95 -3.08,11.94 -5.78,11.94 -1.6,0 -2.95,-0.74 -2.95,-1.48 z"
       id="path56" />
    <path
       d="m 516.92,333.66 c 0,-0.62 -0.98,-1.48 -2.09,-1.72 -1.72,-0.49 -1.48,-0.62 0.62,-0.74 1.6,-0.12 2.71,0.62 2.71,1.72 0,0.98 -0.25,1.85 -0.62,1.85 -0.37,0 -0.62,-0.49 -0.62,-1.11 z"
       id="path57" />
  </g>
  <g
     fill="#17b7b9"
     id="g64"
     transform="translate(-260.06349,-325.07937)">
    <path
       d="m 353.23,535.88 c -26.09,-3.94 -52.18,-14.4 -70.89,-28.68 -10.58,-7.88 -18.58,-15.63 -17.48,-16.74 0.37,-0.49 4.55,-0.98 9.11,-1.23 4.68,-0.25 11.94,-0.86 16.25,-1.35 7.02,-0.74 7.63,-0.62 7.63,1.72 0,2.09 -1.11,2.46 -11.08,3.2 l -11.08,0.86 2.22,2.95 c 1.11,1.72 2.46,3.08 2.95,3.08 0.62,0 4.18,2.34 8.25,5.29 9.48,7.02 24.12,14.52 37.42,19.2 12.31,4.31 34.95,8.74 44.8,8.74 5.66,0 6.52,0.37 6.52,2.46 0,2.22 -0.74,2.46 -6.4,2.34 -3.57,-0.12 -11.82,-0.86 -18.22,-1.85 z"
       id="path58" />
    <path
       d="m 384,535.51 c 0,-2.22 0.74,-2.58 5.42,-2.58 2.83,0 8.74,-0.37 12.92,-0.74 6.28,-0.74 7.51,-0.49 7.51,0.98 0,2.46 -3.2,3.32 -15.63,4.31 -9.85,0.74 -10.22,0.62 -10.22,-1.97 z"
       id="path59" />
    <path
       d="m 424,522.71 -7.38,-6.89 4.43,-0.12 c 5.78,0 11.32,5.42 10.71,10.58 l -0.37,3.45 -7.38,-7.02 z"
       id="path60" />
    <path
       d="m 382.4,509.91 c -1.97,-1.97 -0.86,-12.43 1.72,-15.63 2.34,-2.95 3.32,-3.32 9.6,-2.95 6.89,0.37 6.89,0.37 7.26,4.55 l 0.37,4.06 -3.94,-2.71 c -4.31,-3.2 -6.03,-2.71 -10.09,2.71 -2.34,3.2 -2.34,3.2 0.25,7.02 l 2.71,3.82 h -3.57 c -1.97,0 -3.94,-0.37 -4.31,-0.86 z"
       id="path61" />
    <path
       d="m 428.31,492.92 c 0,-3.45 0.49,-4.31 2.46,-4.31 1.6,0 2.46,-0.86 2.46,-2.46 0,-2.22 0.86,-2.46 6.77,-2.46 3.69,0 6.77,0.49 6.77,1.11 0,0.62 1.11,1.35 2.46,1.72 1.85,0.49 2.46,1.72 2.46,5.05 0,4.8 -2.95,6.28 -4.06,2.09 -0.25,-1.23 -2.09,-3.32 -3.82,-4.43 -4.31,-2.83 -8.98,-0.98 -10.95,4.31 -1.97,5.17 -4.55,4.8 -4.55,-0.62 z"
       id="path62" />
    <path
       d="m 299.08,489.48 c 0,-2.22 0.49,-2.34 24,-5.17 8.86,-1.11 16.12,-2.46 16.37,-3.08 0.25,-0.62 1.11,-0.86 2.09,-0.49 0.86,0.37 1.97,-0.37 2.46,-1.85 0.37,-1.48 1.23,-2.34 1.85,-1.97 0.62,0.37 1.6,-0.37 2.34,-1.48 0.74,-1.23 1.35,-1.72 1.35,-1.23 0,0.49 0.98,0.37 2.22,-0.25 1.11,-0.62 3.82,-1.35 5.91,-1.72 5.29,-0.86 9.11,-3.08 9.11,-5.29 0,-0.98 0.62,-1.48 1.23,-1.11 0.74,0.37 1.23,0.12 1.23,-0.62 0,-0.74 0.62,-0.98 1.23,-0.62 0.74,0.37 1.6,-0.12 1.97,-1.11 0.37,-1.11 1.6,-1.97 2.71,-1.97 0.98,0 1.6,-0.25 1.23,-0.74 -0.37,-0.37 2.22,-3.45 5.78,-7.02 8.37,-8.12 10.09,-9.6 11.45,-9.23 1.35,0.37 8.86,-7.38 8.86,-9.11 0,-0.62 -0.49,-0.74 -1.23,-0.37 -0.62,0.37 -1.23,0 -1.23,-1.11 0,-0.98 -0.74,-2.09 -1.48,-2.34 -0.86,-0.37 1.23,-0.62 4.8,-0.49 3.57,0.12 5.78,0.62 4.92,1.11 -0.86,0.62 1.11,0.74 4.31,0.49 3.2,-0.25 5.54,0 5.17,0.62 -0.25,0.49 1.11,0.74 3.2,0.49 1.97,-0.25 3.69,0 3.69,0.49 0,0.49 0.98,0.86 2.22,0.98 1.11,0 3.45,0.49 5.17,0.98 1.72,0.49 4.31,0.86 5.78,0.98 1.48,0.12 2.34,0.62 1.97,1.35 -0.49,0.62 0.12,0.86 1.23,0.37 1.11,-0.37 2.34,-0.25 2.71,0.37 0.37,0.62 1.72,0.86 3.08,0.62 1.35,-0.25 2.46,0 2.46,0.74 0,0.62 0.37,0.98 0.98,0.98 0.49,-0.12 1.11,0 1.48,0.12 0.37,0.12 1.6,0.37 2.83,0.62 1.23,0.25 3.2,0.86 4.31,1.35 3.2,1.35 5.54,1.85 9.23,1.85 2.71,0 3.32,0.62 3.32,3.08 0,4.18 -3.32,3.94 -20.43,-1.48 -7.75,-2.46 -14.89,-4.06 -15.88,-3.69 -0.98,0.37 -1.85,2.09 -1.85,3.82 0,1.6 -1.48,4.68 -3.32,6.65 -5.66,6.03 -17.97,16.25 -20.92,17.48 -1.6,0.62 -2.83,1.6 -2.83,2.22 0,3.69 -60.31,14.28 -95.02,16.86 -10.58,0.74 -12.06,0.62 -12.06,-1.11 z"
       id="path63" />
    <path
       d="m 580.92,430.52 c 0,-5.29 1.48,-7.51 4.8,-6.89 l 2.58,0.37 -2.58,5.29 c -3.08,6.15 -4.8,6.65 -4.8,1.23 z"
       id="path64" />
  </g>
  <g
     fill="#1187e7"
     id="g130"
     transform="translate(-260.06349,-325.07937)">
    <path
       d="m 342.03,678.28 -2.95,-2.34 v -45.42 -45.29 l 29.91,-0.37 29.78,-0.25 v 40 40 l -2.71,1.72 c -2.46,1.48 -36.31,11.2 -47.26,13.54 -2.83,0.62 -4.55,0.25 -6.77,-1.6 z"
       id="path65" />
    <path
       d="m 339.69,568.62 v -7.38 h 29.54 29.54 v 7.38 7.38 h -29.54 -29.54 z"
       id="path66" />
    <path
       d="m 1012.06,565.29 c -0.86,-0.25 -1.6,-1.35 -1.6,-2.34 0,-1.23 1.48,-1.72 4.92,-1.72 4.06,0 4.92,0.37 4.92,2.46 0,1.85 -0.74,2.46 -3.32,2.34 -1.97,0 -4.18,-0.37 -4.92,-0.74 z"
       id="path67" />
    <path
       d="m 784.86,563.2 c -5.42,-1.97 -12.68,-7.26 -14.52,-10.71 -1.23,-2.34 -0.98,-2.46 2.83,-2.09 2.83,0.25 4.43,1.23 5.29,3.2 0.62,1.48 2.09,2.71 3.32,2.71 1.11,0 2.83,0.86 3.94,1.85 0.98,0.98 3.2,1.85 4.92,1.85 2.34,0 3.2,0.62 3.2,2.46 0,2.83 -2.34,3.08 -8.98,0.74 z"
       id="path68" />
    <path
       d="m 1022.77,562.58 c 0,-2.09 0.74,-2.58 4.31,-2.58 2.34,0 4.31,-0.49 4.31,-1.11 0,-0.62 2.46,-2.09 5.54,-3.45 3.08,-1.23 5.54,-2.58 5.54,-3.08 0,-0.62 1.97,-0.98 4.55,-0.98 4.43,0 4.43,0 2.22,2.46 -2.95,3.2 -15.88,9.48 -21.78,10.58 -4.18,0.74 -4.68,0.49 -4.68,-1.85 z"
       id="path69" />
    <path
       d="m 1114.22,561.85 c -7.51,-3.45 -8.37,-5.54 -2.22,-5.54 2.34,0 4.31,0.62 4.31,1.23 0,0.74 1.11,1.23 2.46,1.23 1.85,0 2.46,0.86 2.46,3.08 0,1.72 -0.12,3.08 -0.25,3.08 -0.25,0 -3.32,-1.35 -6.77,-3.08 z"
       id="path70" />
    <path
       d="m 1140.92,561.85 c 0,-2.46 0.62,-3.08 3.08,-3.08 1.72,0 3.08,-0.49 3.08,-1.23 0,-0.62 1.72,-1.23 3.69,-1.23 2.83,0 3.69,-0.49 3.69,-2.46 0,-1.6 0.86,-2.46 2.46,-2.46 1.6,0 2.46,-0.86 2.46,-2.46 0,-1.97 0.86,-2.46 3.69,-2.46 3.2,0 3.57,0.37 2.58,2.22 -2.83,5.17 -11.32,11.45 -19.57,14.28 l -5.17,1.85 v -2.95 z"
       id="path71" />
    <path
       d="m 691.69,557.54 c 0,-5.29 0.37,-6.15 2.46,-6.15 2.09,0 2.46,0.86 2.46,6.15 0,5.29 -0.37,6.15 -2.46,6.15 -2.09,0 -2.46,-0.86 -2.46,-6.15 z"
       id="path72" />
    <path
       d="m 731.69,557.54 c -2.83,-3.69 -6.28,-8.62 -7.88,-10.71 l -2.71,-4.06 h 3.69 c 3.57,0 3.82,0.37 3.82,4.31 0,3.82 0.37,4.31 3.08,4.31 1.85,0 3.08,0.74 3.08,1.72 0,0.98 0.62,1.97 1.35,2.22 0.74,0.25 1.11,2.34 0.86,4.68 l -0.37,4.31 -4.92,-6.77 z"
       id="path73" />
    <path
       d="m 811.08,560.62 c 0,-2.71 0.49,-3.08 4.31,-3.08 5.29,0 5.54,1.72 0.62,4.31 -4.68,2.46 -4.92,2.34 -4.92,-1.23 z"
       id="path74" />
    <path
       d="m 992.37,560 c -6.28,-2.83 -6.77,-4.92 -1.23,-4.92 5.17,0 7.38,1.48 6.77,4.68 l -0.37,2.58 z"
       id="path75" />
    <path
       d="m 750.77,554.46 c 0,-3.82 -0.37,-4.31 -3.08,-4.31 -1.97,0 -3.08,-0.74 -3.08,-1.85 0,-0.98 -0.49,-1.85 -1.23,-1.85 -0.62,0 -1.23,-1.97 -1.23,-4.31 0,-2.34 0.37,-4.31 0.98,-4.31 0.49,0 3.32,3.69 6.4,8.12 3.08,4.43 6.28,9.11 7.26,10.46 1.48,2.22 1.35,2.34 -2.22,2.34 -3.57,0 -3.82,-0.25 -3.82,-4.31 z"
       id="path76" />
    <path
       d="m 1097.85,553.23 c 0,-4.06 0.25,-4.31 4.31,-4.31 4.06,0 4.31,0.25 4.31,3.94 0,3.08 -0.37,3.57 -1.48,2.46 -1.97,-1.97 -3.45,-1.85 -3.45,0.37 0,0.98 -0.86,1.85 -1.85,1.85 -1.23,0 -1.85,-1.35 -1.85,-4.31 z"
       id="path77" />
    <path
       d="m 978.83,549.78 c -3.57,-4.06 -8.98,-13.17 -8.98,-15.02 0,-0.37 1.35,-0.62 2.95,-0.62 3.08,0 4.43,1.97 4.43,6.89 0,2.09 0.62,2.95 2.46,2.95 2.95,0 4.06,2.09 3.45,6.89 l -0.37,3.45 -3.94,-4.55 z"
       id="path78" />
    <path
       d="m 1019.08,548.31 c 0,-0.98 0.12,-1.85 0.37,-1.85 0.12,0 2.09,-0.49 4.31,-1.11 3.69,-1.11 3.94,-0.98 3.94,1.85 0,2.58 -0.62,2.95 -4.31,2.95 -2.95,0 -4.31,-0.62 -4.31,-1.85 z"
       id="path79" />
    <path
       d="m 1052.31,545.97 c 0,-4.06 0.25,-4.43 3.82,-4.43 h 3.69 l -2.58,3.69 c -3.82,5.42 -4.92,5.54 -4.92,0.74 z"
       id="path80" />
    <path
       d="m 1115.08,548.31 c 0,-1.23 -1.23,-1.85 -3.69,-1.85 -2.83,0 -3.69,-0.49 -3.69,-2.46 0,-1.6 -0.86,-2.46 -2.46,-2.46 -1.35,0 -2.46,-0.62 -2.46,-1.35 0,-0.74 -0.86,-2.09 -1.85,-3.08 -2.34,-2.46 -2.46,-10.34 -0.12,-10.34 0.98,0 2.09,1.35 2.46,3.08 1.23,4.92 8.98,12.55 15.02,14.89 6.65,2.46 7.26,5.42 1.11,5.42 -2.95,0 -4.31,-0.62 -4.31,-1.85 z"
       id="path81" />
    <path
       d="m 1133.54,547.45 c 0.12,-0.86 1.97,-2.46 4.31,-3.57 l 4.31,-1.97 v 3.45 c 0,3.2 -0.37,3.57 -4.31,3.57 -2.71,0 -4.31,-0.62 -4.31,-1.48 z"
       id="path82" />
    <path
       d="m 785.23,544 c 0,-1.97 -0.49,-3.69 -1.23,-3.69 -1.6,0 -1.6,-5.54 0.12,-11.45 1.48,-5.54 7.02,-9.48 13.17,-9.48 5.42,0 5.17,3.08 -0.37,4.92 -9.11,2.95 -12.06,12.55 -6.03,19.57 l 3.2,3.82 h -4.43 c -4.06,0 -4.43,-0.25 -4.43,-3.69 z"
       id="path83" />
    <path
       d="m 820.55,542.28 c 4.43,-5.42 5.29,-5.42 5.29,-0.12 0,4.18 -0.25,4.31 -4.43,4.31 h -4.43 l 3.57,-4.18 z"
       id="path84" />
    <path
       d="m 766.4,541.91 c -0.49,-0.37 -0.86,-2.95 -0.86,-5.54 0,-3.82 0.37,-4.68 2.46,-4.68 2.09,0 2.46,0.86 2.46,5.54 0,5.29 -1.72,7.14 -4.06,4.68 z"
       id="path85" />
    <path
       d="m 930.46,522.46 c 0,-16.62 -0.37,-19.82 -2.46,-23.88 -2.09,-4.31 -8.37,-8.74 -12.18,-8.74 -0.74,0 -1.35,-0.86 -1.35,-1.85 0,-1.23 1.35,-1.85 4.31,-1.85 2.34,0 4.31,0.62 4.31,1.23 0,0.74 1.11,1.23 2.46,1.23 1.35,0 2.46,0.86 2.46,1.85 0,0.98 0.86,1.85 1.85,1.85 0.98,0 1.85,1.11 1.85,2.34 0,1.35 0.74,2.58 1.6,2.83 1.11,0.49 1.6,6.28 1.85,22.28 0.49,21.42 0.49,21.78 -2.09,21.78 -2.46,0 -2.58,-0.49 -2.58,-19.08 z"
       id="path86" />
    <path
       d="m 1148.43,533.42 c 5.05,-9.6 5.05,-20.55 0.12,-30.52 l -3.57,-6.89 h 3.45 c 4.92,0 7.88,8.25 7.88,22.15 0,7.14 -0.74,12.31 -2.22,16.37 -1.97,5.05 -2.71,5.78 -5.78,5.78 h -3.57 z"
       id="path87" />
    <path
       d="m 715.32,534.77 -2.71,-4.31 h 3.69 c 3.45,0 3.69,0.37 3.69,4.31 0,5.42 -1.11,5.42 -4.68,0 z"
       id="path88" />
    <path
       d="m 987.82,534.15 c -2.58,-6.4 -2.58,-12.31 -0.12,-12.31 0.98,0 2.09,1.48 2.58,3.45 0.37,1.85 2.09,5.66 3.82,8.62 l 2.95,5.17 h -3.57 c -3.08,0 -3.94,-0.74 -5.66,-4.92 z"
       id="path89" />
    <path
       d="m 1037.54,535.14 c 1.35,-2.22 3.08,-6.15 3.82,-8.62 1.6,-6.15 4.8,-6.28 4.8,-0.37 0,2.95 -0.62,4.31 -1.85,4.31 -1.23,0 -1.85,1.35 -1.85,4.31 0,3.94 -0.25,4.31 -3.69,4.31 h -3.69 z"
       id="path90" />
    <path
       d="m 825.85,529.23 c 0,-5.78 -0.25,-6.15 -3.08,-6.15 -2.22,0 -3.08,-0.62 -3.08,-2.46 0,-1.85 0.86,-2.46 3.57,-2.46 6.89,0 7.51,0.86 7.51,9.35 0,7.02 -0.25,7.88 -2.46,7.88 -2.09,0 -2.46,-0.86 -2.46,-6.15 z"
       id="path91" />
    <path
       d="m 701.54,528.12 c 0,-5.05 2.46,-7.51 7.26,-7.51 3.57,0 3.82,0.25 3.82,4.68 -0.12,4.31 -0.25,4.43 -1.85,2.22 -1.85,-2.34 -1.97,-2.34 -5.54,1.11 l -3.69,3.57 v -4.06 z"
       id="path92" />
    <path
       d="m 968.12,528.49 c -1.48,-3.94 -0.74,-6.65 1.72,-6.65 1.97,0 2.46,0.86 2.46,4.31 0,4.55 -2.71,6.03 -4.18,2.34 z"
       id="path93" />
    <path
       d="m 766.77,528.62 c 0,-1.72 3.94,-8 4.92,-8 0.74,0 1.23,1.97 1.23,4.31 0,3.82 -0.37,4.31 -3.08,4.31 -1.72,0 -3.08,-0.25 -3.08,-0.62 z"
       id="path94" />
    <path
       d="m 804.92,520.62 c 0,-2.09 0.86,-2.46 4.92,-2.46 4.06,0 4.92,0.37 4.92,2.46 0,2.09 -0.86,2.46 -4.92,2.46 -4.06,0 -4.92,-0.37 -4.92,-2.46 z"
       id="path95" />
    <path
       d="m 724.92,520.12 c 0,-0.98 -0.49,-1.97 -1.23,-2.22 -0.62,-0.12 -1.48,-3.57 -1.97,-7.38 l -0.86,-7.14 h 4.68 4.68 l -2.71,2.95 c -2.58,2.83 -2.71,3.08 -0.86,6.4 1.11,1.97 2.83,4.8 3.94,6.4 1.97,2.58 1.97,2.71 -1.85,2.71 -2.46,0 -3.82,-0.62 -3.82,-1.72 z"
       id="path96" />
    <path
       d="m 772.92,518.52 c 0,-1.35 7.26,-5.91 12.06,-7.51 3.69,-1.23 3.94,-1.23 3.94,1.72 0,2.46 -0.62,2.95 -3.69,2.95 -2.46,0 -3.69,0.62 -3.69,1.85 0,1.23 -1.35,1.85 -4.31,1.85 -2.34,0 -4.31,-0.37 -4.31,-0.86 z"
       id="path97" />
    <path
       d="m 967.38,512.37 c 0,-4.55 4.06,-16.37 5.66,-16.37 2.09,0 2.22,3.57 0.25,11.94 -1.11,4.8 -2.09,6.52 -3.69,6.52 -1.23,0 -2.22,-0.86 -2.22,-2.09 z"
       id="path98" />
    <path
       d="m 986.22,508.68 c 0.37,-3.2 1.23,-6.03 1.97,-6.28 0.74,-0.25 1.35,-1.48 1.35,-2.83 0,-1.72 0.86,-2.34 3.69,-2.34 h 3.69 l -2.46,4.06 c -1.35,2.09 -3.08,6.03 -3.82,8.62 -0.74,2.83 -1.97,4.55 -3.2,4.55 -1.6,0 -1.85,-0.98 -1.23,-5.78 z"
       id="path99" />
    <path
       d="m 1041.35,509.91 c -0.86,-2.58 -1.85,-5.42 -2.09,-6.15 -0.49,-1.11 0.37,-1.6 2.34,-1.6 3.2,0 4.55,2.46 4.55,8.98 0,4.92 -3.08,4.18 -4.8,-1.23 z"
       id="path100" />
    <path
       d="m 1059.69,510.15 c 0,-4.55 2.71,-6.03 4.18,-2.34 1.48,3.94 0.74,6.65 -1.72,6.65 -1.97,0 -2.46,-0.86 -2.46,-4.31 z"
       id="path101" />
    <path
       d="m 691.69,472 c 0,-40.37 0,-41.23 2.46,-41.23 2.46,0 2.46,0.86 2.46,39.02 v 39.02 l 3.69,-3.57 3.69,-3.57 v 4.31 c 0,5.54 -1.85,7.26 -7.63,7.26 h -4.68 v -41.23 z"
       id="path102" />
    <path
       d="m 791.63,511.14 c 0.25,-1.48 1.72,-2.34 4.43,-2.58 3.32,-0.37 3.94,0 3.94,2.09 0,2.09 -0.74,2.58 -4.43,2.58 -3.45,0 -4.31,-0.37 -3.94,-2.09 z"
       id="path103" />
    <path
       d="m 885.29,506.83 c 0.49,-3.57 1.35,-6.65 2.09,-6.89 0.62,-0.25 1.23,-1.48 1.23,-2.83 0,-1.72 0.86,-2.34 3.57,-2.34 h 3.69 l -2.95,5.29 c -1.72,2.83 -3.08,7.02 -3.08,9.23 0,3.2 -0.49,3.94 -2.58,3.94 -2.46,0 -2.58,-0.49 -1.97,-6.4 z"
       id="path104" />
    <path
       d="m 1098.22,507.45 c 0.37,-3.2 1.23,-6.03 1.97,-6.28 0.74,-0.25 1.35,-1.48 1.35,-2.83 0,-1.72 0.86,-2.34 3.69,-2.34 3.2,0 3.69,-0.37 3.69,-3.57 0,-2.83 0.74,-3.82 3.82,-4.92 6.77,-2.34 15.26,-2.83 22.4,-1.35 6.15,1.23 7.02,1.72 7.02,4.43 0,3.45 0.25,3.45 -5.29,1.11 -14.28,-5.91 -30.15,1.85 -34.09,16.86 -0.86,2.95 -2.09,4.68 -3.32,4.68 -1.6,0 -1.85,-0.98 -1.23,-5.78 z"
       id="path105" />
    <path
       d="m 822.15,510.15 c 0,-0.98 0.86,-1.85 1.85,-1.85 2.71,0 2.34,-7.14 -0.49,-11.82 -2.09,-3.45 -8.98,-7.88 -12.31,-7.88 -0.74,0 -1.35,-0.86 -1.35,-1.85 0,-1.23 1.35,-1.85 4.31,-1.85 2.34,0 4.31,0.62 4.31,1.23 0,0.74 1.11,1.23 2.46,1.23 1.6,0 2.46,0.86 2.46,2.46 0,1.6 0.86,2.46 2.34,2.46 2.95,0 3.82,2.22 4.68,11.94 l 0.74,7.75 h -4.55 c -3.08,0 -4.43,-0.49 -4.43,-1.85 z"
       id="path106" />
    <path
       d="m 843.08,501.54 c 0,-4.55 2.71,-6.03 4.18,-2.34 1.48,3.94 0.74,6.65 -1.72,6.65 -1.97,0 -2.46,-0.86 -2.46,-4.31 z"
       id="path107" />
    <path
       d="m 946.95,496.62 c -0.37,-3.08 -1.23,-5.54 -1.85,-5.54 -0.62,0 -1.11,-0.86 -1.11,-1.85 0,-0.98 -0.49,-1.85 -1.23,-1.85 -0.62,0 -1.23,-2.09 -1.23,-4.55 l 0.12,-4.68 3.57,3.94 c 3.2,3.57 7.38,14.03 7.38,18.46 0,0.86 -1.11,1.6 -2.34,1.6 -1.97,0 -2.58,-1.11 -3.32,-5.54 z"
       id="path108" />
    <path
       d="m 1034.46,497.23 c -1.97,-2.09 -6.28,-4.68 -9.48,-5.91 -6.52,-2.34 -7.88,-5.17 -2.34,-5.17 5.05,0 11.2,2.46 11.2,4.43 0,0.98 1.11,1.72 2.46,1.72 1.97,0 2.46,0.86 2.46,4.31 0,2.34 -0.12,4.31 -0.37,4.31 -0.25,0 -1.97,-1.72 -3.94,-3.69 z"
       id="path109" />
    <path
       d="m 1165.54,495.38 c 0,-5.29 1.72,-5.54 4.31,-0.62 2.46,4.68 2.34,4.92 -1.23,4.92 -2.71,0 -3.08,-0.49 -3.08,-4.31 z"
       id="path110" />
    <path
       d="m 998.15,492.31 c 0,-2.71 0.74,-3.69 3.82,-4.8 5.66,-1.97 10.95,-1.72 10.95,0.49 0,0.98 -0.74,1.85 -1.6,1.85 -0.98,0 -4.31,1.35 -7.38,2.95 l -5.78,2.83 v -3.32 z"
       id="path111" />
    <path
       d="m 897.23,491.08 c 0,-2.46 0.74,-3.57 2.83,-4.18 5.05,-1.35 9.48,-0.86 9.48,1.11 0,0.98 -0.74,1.85 -1.6,1.85 -0.86,0 -3.57,1.11 -6.15,2.34 l -4.55,2.34 v -3.45 z"
       id="path112" />
    <path
       d="m 715.69,488.49 4.92,-4.92 0.37,3.2 c 0.74,5.29 -0.49,6.77 -5.54,6.77 h -4.55 z"
       id="path113" />
    <path
       d="m 785.23,490.58 c 0,-2.46 0.98,-3.2 5.42,-4.31 3.08,-0.74 6.89,-1.35 8.62,-1.35 4.31,0 4.18,3.45 -0.12,4.43 -1.97,0.37 -5.78,1.48 -8.62,2.34 -5.17,1.72 -5.29,1.6 -5.29,-1.11 z"
       id="path114" />
    <path
       d="m 974.65,491.32 c 0.62,-1.11 2.34,-3.2 3.69,-4.43 2.58,-2.34 2.58,-2.34 2.58,2.09 0,4.18 -0.25,4.55 -3.69,4.55 -3.2,0 -3.57,-0.37 -2.58,-2.22 z"
       id="path115" />
    <path
       d="m 773.66,487.38 c -2.58,-4.55 -1.6,-6.28 5.54,-9.97 5.91,-2.95 6.03,-2.95 6.03,0.62 0,2.09 -0.86,3.32 -2.71,3.94 -3.45,0.98 -4.68,2.71 -4.68,6.4 0,3.82 -1.48,3.45 -4.18,-0.98 z"
       id="path116" />
    <path
       d="m 836.92,484.18 c 0,-4.8 1.11,-4.68 4.92,0.74 l 2.58,3.69 h -3.69 c -3.57,0 -3.82,-0.37 -3.82,-4.43 z"
       id="path117" />
    <path
       d="m 747.08,481.11 c 0,-2.71 0.86,-5.17 2.22,-6.4 2.34,-2.09 8.86,-2.95 8.86,-1.11 0,0.49 -2.46,3.45 -5.54,6.4 l -5.54,5.42 z"
       id="path118" />
    <path
       d="m 1042.46,481.23 c 0,-3.2 0.37,-3.57 2.22,-2.58 1.11,0.62 3.2,2.34 4.43,3.69 2.34,2.58 2.34,2.58 -2.09,2.58 -4.18,0 -4.55,-0.25 -4.55,-3.69 z"
       id="path119" />
    <path
       d="m 1105.97,479.88 c 2.34,-2.58 6.52,-5.17 12.18,-7.26 2.83,-1.11 3.08,-0.86 3.08,1.85 0,2.22 -0.62,3.08 -2.46,3.08 -1.35,0 -2.46,0.62 -2.46,1.23 0,0.74 -0.86,1.23 -1.85,1.23 -0.98,0 -1.85,0.62 -1.85,1.23 0,0.74 -1.97,1.23 -4.55,1.23 -4.43,0 -4.43,0 -2.09,-2.58 z"
       id="path120" />
    <path
       d="m 1149.54,478.15 c 0,-3.57 0.25,-3.69 4.92,-1.23 4.92,2.58 4.68,4.31 -0.62,4.31 -3.82,0 -4.31,-0.37 -4.31,-3.08 z"
       id="path121" />
    <path
       d="m 897.23,477.54 c 0,-0.98 6.28,-4.92 8,-4.92 0.37,0 0.62,1.35 0.62,3.08 0,2.71 -0.49,3.08 -4.31,3.08 -2.34,0 -4.31,-0.49 -4.31,-1.23 z"
       id="path122" />
    <path
       d="m 816,473.85 c 0,-2.46 2.71,-3.2 6.65,-1.72 3.69,1.48 2.22,4.18 -2.34,4.18 -3.45,0 -4.31,-0.49 -4.31,-2.46 z"
       id="path123" />
    <path
       d="m 924.31,473.85 c 0,-2.46 2.71,-3.2 6.65,-1.72 3.69,1.48 2.22,4.18 -2.34,4.18 -3.45,0 -4.31,-0.49 -4.31,-2.46 z"
       id="path124" />
    <path
       d="m 1137.23,473.85 c 0,-2.46 2.71,-3.2 6.65,-1.72 3.69,1.48 2.22,4.18 -2.34,4.18 -3.45,0 -4.31,-0.49 -4.31,-2.46 z"
       id="path125" />
    <path
       d="m 1009.23,472.62 c 0,-2.34 0.62,-2.58 7.02,-2.22 5.66,0.25 7.26,0.86 7.51,2.58 0.37,1.85 -0.62,2.09 -7.02,2.09 -6.77,0 -7.51,-0.25 -7.51,-2.46 z"
       id="path126" />
    <path
       d="m 1127.38,472.62 c 0,-1.97 0.86,-2.46 4.31,-2.46 3.45,0 4.31,0.49 4.31,2.46 0,1.97 -0.86,2.46 -4.31,2.46 -3.45,0 -4.31,-0.49 -4.31,-2.46 z"
       id="path127" />
  </g>
  <g
     fill="#0ea9c6"
     id="g158"
     transform="translate(-260.06349,-325.07937)">
    <path
       d="m 338.95,639.38 c 0,-14.89 0.25,-20.8 0.37,-13.17 0.25,7.63 0.25,19.82 0,27.08 -0.12,7.26 -0.37,0.98 -0.37,-13.91 z"
       id="path131" />
    <path
       d="m 338.95,593.23 0.12,-8 h 30.15 l 30.15,-0.12 -29.78,0.37 -29.78,0.37 -0.49,7.75 -0.37,7.63 z"
       id="path132" />
    <path
       d="m 1131.08,563.69 c 0,-1.97 0.86,-2.46 4.31,-2.46 4.92,0 6.03,2.95 1.6,4.18 -4.68,1.23 -5.91,0.86 -5.91,-1.72 z"
       id="path133" />
    <path
       d="m 931.57,562.22 c 0,-0.86 -0.25,-3.94 -0.62,-6.77 -0.37,-4.68 -0.25,-5.29 1.97,-5.29 2.22,0 2.46,0.86 2.46,6.77 0,5.17 -0.37,6.77 -1.85,6.77 -0.98,0 -1.85,-0.74 -1.97,-1.48 z"
       id="path134" />
    <path
       d="m 354.22,561.6 c 8.25,-0.25 21.78,-0.25 30.15,0 8.25,0.12 1.48,0.37 -15.14,0.37 -16.62,0 -23.38,-0.25 -15.02,-0.37 z"
       id="path135" />
    <path
       d="m 884.92,536 c 0,-19.82 0.12,-21.54 2.22,-21.54 1.97,0 2.22,1.72 2.46,21.54 0.25,20.68 0.12,21.54 -2.22,21.54 -2.34,0 -2.46,-0.86 -2.46,-21.54 z"
       id="path136" />
    <path
       d="m 1116.31,546.95 c 0,-2.83 0.25,-3.08 2.09,-1.6 1.11,0.98 2.22,1.6 2.46,1.48 1.35,-1.11 4.06,-0.12 4.06,1.48 0,1.23 -1.35,1.85 -4.31,1.85 -3.82,0 -4.31,-0.37 -4.31,-3.2 z"
       id="path137" />
    <path
       d="m 999.38,544.62 c 0,-3.57 0.25,-3.69 4.92,-1.23 4.92,2.58 4.68,4.31 -0.62,4.31 -3.82,0 -4.31,-0.37 -4.31,-3.08 z"
       id="path138" />
    <path
       d="m 822.15,542.15 c 0,-1.72 3.94,-8 4.92,-8 0.74,0 1.23,1.97 1.23,4.31 0,3.82 -0.37,4.31 -3.08,4.31 -1.72,0 -3.08,-0.25 -3.08,-0.62 z"
       id="path139" />
    <path
       d="m 1057.23,537.35 c 0,-3.94 0.37,-4.43 3.08,-4.43 2.95,0 3.08,0.12 1.48,3.94 -2.34,5.66 -4.55,5.91 -4.55,0.49 z"
       id="path140" />
    <path
       d="m 1169.23,533.29 c 0,-1.23 0.37,-5.17 0.74,-8.62 0.74,-5.42 1.23,-6.52 3.2,-6.52 2.46,0 2.58,1.6 0.25,13.91 -0.74,3.69 -4.18,4.68 -4.18,1.23 z"
       id="path141" />
    <path
       d="m 726.15,518.52 c 0,-4.43 0,-4.43 2.22,-2.09 5.66,6.4 5.78,6.65 1.6,6.65 -3.57,0 -3.82,-0.25 -3.82,-4.55 z"
       id="path142" />
    <path
       d="m 771.82,519.75 c 3.82,-4.92 6.03,-5.29 6.03,-0.98 0,2.58 -0.62,3.08 -3.82,3.08 -3.57,0 -3.69,-0.25 -2.22,-2.09 z"
       id="path143" />
    <path
       d="m 1169.97,511.26 c -1.11,-8.49 -0.98,-10.34 0.98,-10.34 1.72,0 2.22,1.35 3.94,11.45 0.62,3.94 0.49,4.55 -1.72,4.55 -1.85,0 -2.58,-1.11 -3.2,-5.66 z"
       id="path144" />
    <path
       d="m 788.92,511.38 c 0,-0.98 0.74,-1.97 1.6,-1.97 0.74,-0.12 2.71,-0.37 4.31,-0.49 1.97,-0.25 2.71,0.37 2.71,1.97 0,1.85 -0.98,2.34 -4.31,2.34 -2.95,0 -4.31,-0.62 -4.31,-1.85 z"
       id="path145" />
    <path
       d="m 803.69,510.28 c 0,-1.72 3.57,-3.2 8.37,-3.2 1.85,0 2.71,0.74 2.71,2.46 0,2.09 -0.86,2.46 -5.54,2.46 -3.94,0 -5.54,-0.49 -5.54,-1.72 z"
       id="path146" />
    <path
       d="m 816,509.54 c 0,-2.58 1.23,-2.95 5.91,-1.72 4.43,1.23 3.32,4.18 -1.6,4.18 -3.45,0 -4.31,-0.49 -4.31,-2.46 z"
       id="path147" />
    <path
       d="m 710.15,494.77 c 3.82,-5.42 4.92,-5.54 4.92,-0.74 0,4.06 -0.25,4.43 -3.82,4.43 h -3.69 l 2.58,-3.69 z"
       id="path148" />
    <path
       d="m 778.22,494.77 c -1.85,-2.83 -0.86,-3.69 4.18,-3.69 4.92,0 5.17,1.23 0.62,3.94 -3.2,1.97 -3.57,1.97 -4.8,-0.25 z"
       id="path149" />
    <path
       d="m 428.31,491.94 c 0,-2.58 0.98,-5.05 2.34,-6.28 3.08,-2.71 10.83,-3.82 15.26,-2.09 2.71,1.11 3.32,2.09 3.32,5.54 v 4.31 l -3.2,-2.95 c -1.85,-1.72 -4.55,-3.08 -6.03,-3.08 -2.83,0 -8,4.68 -8,7.14 0,0.86 -0.86,1.48 -1.85,1.48 -1.23,0 -1.85,-1.23 -1.85,-4.06 z"
       id="path150" />
    <path
       d="m 355.69,483.08 c 0,-0.98 0.25,-1.85 0.37,-1.85 1.23,0 37.54,-7.51 41.6,-8.62 2.58,-0.74 4.8,-1.85 4.8,-2.58 0,-0.62 1.23,-1.6 2.83,-2.22 2.83,-1.11 22.89,-18.22 23.14,-19.57 0.86,-7.26 2.34,-9.85 6.03,-10.34 2.09,-0.37 3.69,0 3.69,0.62 0,0.62 1.11,0.86 2.46,0.49 1.35,-0.37 2.46,-0.12 2.46,0.62 0,0.74 0.86,0.98 1.85,0.49 0.98,-0.37 1.85,0 1.85,0.62 0,0.74 1.11,1.11 2.46,0.74 1.35,-0.37 2.46,-0.12 2.46,0.62 0,0.74 0.86,0.98 1.85,0.49 0.98,-0.37 1.85,-0.12 1.85,0.49 0,0.62 0.86,0.86 1.85,0.49 0.98,-0.49 1.85,-0.12 1.85,0.74 0,0.86 0.86,1.23 1.85,0.74 0.98,-0.37 1.85,-0.12 1.85,0.62 0,0.74 0.62,0.86 1.35,0.37 0.74,-0.37 1.85,0 2.46,0.86 0.74,1.23 1.11,1.35 1.11,0.25 0,-0.86 0.62,-1.6 1.23,-1.6 0.74,0 1.23,1.6 1.23,3.45 0,3.2 -0.98,3.94 -11.94,9.23 -22.52,10.71 -42.83,16.98 -73.72,23.02 -22.03,4.18 -28.8,4.68 -28.8,1.85 z"
       id="path151" />
    <path
       d="m 1152,479.51 c 0,-2.34 0.49,-2.83 2.34,-2.34 1.35,0.37 3.32,1.72 4.55,2.95 2.09,2.22 1.97,2.34 -2.34,2.34 -3.94,0 -4.55,-0.37 -4.55,-2.95 z"
       id="path152" />
    <path
       d="m 726.4,477.29 c 3.69,-4.8 8.37,-6.15 8.37,-2.46 0,3.32 -3.82,6.4 -8,6.4 h -3.45 z"
       id="path153" />
    <path
       d="m 1032.62,475.69 c 0,-2.95 0.12,-3.08 3.94,-1.48 5.66,2.34 5.91,4.55 0.49,4.55 -3.94,0 -4.43,-0.37 -4.43,-3.08 z"
       id="path154" />
    <path
       d="m 924.68,475.94 c -3.94,-0.98 -5.29,-1.97 -5.29,-3.69 0,-2.09 0.62,-2.34 4.06,-1.6 2.09,0.49 5.29,1.23 6.89,1.48 4.06,0.86 7.51,2.83 7.51,4.18 0,1.48 -6.28,1.23 -13.17,-0.37 z"
       id="path155" />
    <path
       d="m 809.85,472.62 c 0,-2.58 1.23,-2.95 5.91,-1.72 4.43,1.23 3.32,4.18 -1.6,4.18 -3.45,0 -4.31,-0.49 -4.31,-2.46 z"
       id="path156" />
  </g>
  <g
     fill="#2ec08d"
     id="g170"
     transform="translate(-260.06349,-325.07937)">
    <path
       d="m 483.45,536.98 c -1.23,-0.25 -2.22,-1.35 -2.22,-2.34 0,-1.35 1.85,-1.72 8,-1.72 7.14,0 8,0.25 8,2.46 0,2.09 -0.74,2.46 -5.78,2.34 -3.32,-0.12 -6.89,-0.37 -8,-0.74 z"
       id="path159" />
    <path
       d="m 498.46,535.63 c 0,-2.09 1.48,-2.46 12.68,-3.08 22.52,-1.35 44.18,-6.52 58.95,-13.91 5.54,-2.83 13.29,-3.94 13.29,-1.97 0,3.08 -20.92,12.18 -35.69,15.51 -10.34,2.46 -35.32,5.66 -43.2,5.66 -5.05,0 -6.03,-0.37 -6.03,-2.22 z"
       id="path160" />
    <path
       d="m 471.14,535.75 c -1.23,-0.25 -2.22,-1.35 -2.22,-2.34 0,-1.23 1.6,-1.72 5.54,-1.72 4.68,0 5.54,0.37 5.54,2.46 0,1.85 -0.74,2.46 -3.32,2.34 -1.97,-0.12 -4.43,-0.37 -5.54,-0.74 z"
       id="path161" />
    <path
       d="m 476.31,523.2 c 0,-0.62 2.09,-2.95 4.68,-5.05 l 4.55,-3.82 0.37,3.2 c 0.25,1.85 -0.25,4.06 -1.11,5.05 -1.6,1.85 -8.49,2.46 -8.49,0.62 z"
       id="path162" />
    <path
       d="m 584.62,513.35 c 0,-3.57 0.37,-3.82 4.43,-3.82 4.8,0 4.68,1.11 -0.74,4.92 l -3.69,2.58 v -3.69 z"
       id="path163" />
    <path
       d="m 493.54,506.46 c 1.97,-2.34 0.74,-6.77 -2.95,-10.83 l -3.08,-3.32 h 4.06 c 5.17,0 8.12,4.06 8.12,11.08 0,4.68 -0.12,4.92 -3.82,4.92 -3.32,0 -3.69,-0.25 -2.34,-1.85 z"
       id="path164" />
    <path
       d="m 510.77,488.25 c 0,-3.94 0.37,-4.18 8.49,-7.38 4.68,-1.85 9.11,-3.32 9.85,-3.32 0.74,0 1.35,-0.37 1.35,-0.98 0,-0.49 2.58,-2.34 5.78,-3.94 3.2,-1.72 6.89,-4.06 8.25,-5.17 1.35,-1.23 3.08,-2.22 3.94,-2.22 0.74,0 1.72,-0.86 2.22,-1.85 0.37,-0.98 2.09,-1.85 3.82,-1.85 2.09,0 3.08,-0.62 3.08,-2.22 0,-2.46 10.95,-13.78 13.29,-13.78 0.86,0 1.48,-1.11 1.48,-2.46 0,-1.35 0.49,-2.46 1.11,-2.46 0.62,0 1.35,-1.11 1.72,-2.46 0.49,-1.72 1.72,-2.46 4.06,-2.46 2.58,0 3.08,0.37 2.09,1.35 -0.74,0.74 -1.11,2.22 -0.74,3.08 0.37,0.98 -0.25,2.09 -1.35,2.46 -1.11,0.37 -1.97,1.23 -1.97,1.72 0,2.58 -17.85,20.8 -26.83,27.45 -2.95,2.09 -4.8,4.06 -4.06,4.31 0.74,0.25 1.35,0.86 1.35,1.35 0,1.23 -9.23,6.28 -11.57,6.28 -1.11,0 -1.97,0.49 -1.97,1.11 0,1.6 -15.38,7.51 -19.69,7.51 -3.32,0 -3.69,-0.37 -3.69,-4.06 z"
       id="path165" />
    <path
       d="m 548.31,475.08 c 0.37,-0.62 1.97,-1.23 3.45,-1.23 2.22,0 2.34,0.25 0.86,1.23 -2.46,1.6 -5.29,1.6 -4.31,0 z"
       id="path166" />
    <path
       d="m 465.6,450.95 c -0.98,-0.49 -0.62,-1.48 0.98,-3.08 1.72,-1.72 3.32,-2.09 5.66,-1.6 2.34,0.62 2.95,0.49 2.22,-0.74 -0.62,-1.11 0,-1.35 2.58,-0.98 1.97,0.37 2.83,0.37 2.09,0.12 -3.94,-1.35 -1.11,-3.82 5.91,-5.17 4.18,-0.86 8.25,-1.85 9.23,-2.22 0.98,-0.37 1.72,0 1.72,0.74 0,0.86 -1.72,2.09 -3.82,2.83 -1.97,0.74 -3.45,1.48 -3.2,1.85 0.86,0.86 25.23,-5.66 33.11,-8.86 15.26,-6.28 29.91,-18.22 35.57,-29.17 2.83,-5.66 2.95,-6.77 0.25,-7.63 -1.23,-0.37 0,-0.37 2.71,0 6.28,0.86 32.62,9.23 32.62,10.46 0,8.49 -21.17,18.71 -65.23,31.38 -19.57,5.66 -52.31,12.8 -57.85,12.68 -1.72,0 -3.69,-0.37 -4.55,-0.62 z"
       id="path167" />
    <path
       d="m 371.69,430.65 c 1.6,-0.74 3.32,-1.85 3.82,-2.46 0.98,-1.72 14.4,-2.83 20.31,-1.72 4.55,0.74 4.68,0.86 2.34,2.71 -1.85,1.35 -4.55,1.72 -11.32,1.11 -5.54,-0.49 -8.98,-0.25 -8.98,0.49 0,0.74 -2.09,1.23 -4.55,1.11 -4.31,0 -4.43,-0.12 -1.6,-1.23 z"
       id="path168" />
    <path
       d="m 399.14,431.14 c 1.11,-0.25 3.08,-0.25 4.31,0 1.11,0.37 0.12,0.62 -2.22,0.62 -2.34,0 -3.32,-0.25 -2.09,-0.62 z"
       id="path169" />
    <path
       d="m 512,381.91 c 0,-7.88 3.69,-12.43 5.29,-6.52 0.37,1.6 0.12,2.22 -0.74,1.6 -0.74,-0.49 -0.98,0.25 -0.62,1.85 0.49,1.48 0.25,2.71 -0.37,2.71 -0.62,0 -1.11,0.86 -1.11,1.85 0,0.98 -0.49,1.85 -1.23,1.85 -0.62,0 -1.23,-1.48 -1.23,-3.32 z"
       id="path170" />
  </g>
  <g
     fill="#40cb6f"
     id="g180"
     transform="translate(-260.06349,-325.07937)">
    <path
       d="m 424.98,586.22 c 1.85,-0.25 4.8,-0.25 6.77,0 1.85,0.25 0.25,0.49 -3.45,0.49 -3.69,0 -5.29,-0.25 -3.32,-0.49 z"
       id="path171" />
    <path
       d="m 413.78,571.08 c 0,-2.34 0.25,-3.32 0.62,-2.09 0.25,1.11 0.25,3.08 0,4.31 -0.37,1.11 -0.62,0.12 -0.62,-2.22 z"
       id="path172" />
    <path
       d="m 430.52,562.83 c 2.22,-0.25 5.54,-0.25 7.38,0 1.85,0.25 0,0.49 -4.06,0.49 -4.06,0 -5.54,-0.25 -3.32,-0.49 z"
       id="path173" />
    <path
       d="m 444.68,562.83 c 1.85,-0.25 4.55,-0.25 6.15,0 1.48,0.25 0,0.49 -3.45,0.49 -3.32,0 -4.68,-0.25 -2.71,-0.49 z"
       id="path174" />
    <path
       d="m 569.97,515.32 c -2.46,-0.74 -5.05,-2.83 -6.15,-4.8 -1.11,-1.85 -2.95,-3.45 -4.06,-3.45 -1.23,0 -2.22,-0.49 -2.22,-1.23 0,-0.62 -0.98,-1.23 -2.34,-1.23 -1.6,0 -2.46,-1.11 -2.95,-3.69 -0.49,-1.97 -1.48,-3.69 -2.22,-3.69 -0.86,0 -2.09,-0.86 -2.95,-2.09 -1.23,-1.6 -3.32,-1.97 -9.97,-1.72 -4.68,0.12 -9.23,-0.37 -10.09,-0.86 -1.11,-0.74 -1.48,-3.08 -1.23,-7.02 l 0.37,-5.91 9.35,-5.66 c 5.17,-3.08 11.32,-7.14 13.78,-8.98 2.46,-1.97 5.78,-3.45 7.51,-3.45 2.46,0 3.2,-0.62 3.2,-2.71 0,-3.57 5.05,-8.37 8.62,-8.37 2.09,0 2.46,0.37 1.48,1.6 -0.74,0.74 -1.35,2.09 -1.35,2.71 -0.12,0.74 -0.86,1.23 -1.6,1.23 -0.86,0 -1.6,0.86 -1.6,1.85 0,0.98 -0.62,1.85 -1.23,1.85 -0.74,0 -3.45,2.34 -6.03,5.29 -2.58,2.83 -5.66,5.05 -6.77,4.92 -0.98,-0.25 -1.97,0.25 -1.97,1.11 0,0.86 -1.11,2.34 -2.46,3.32 -1.35,1.11 -1.85,1.97 -1.11,1.97 0.62,0 1.85,-0.62 2.58,-1.35 1.6,-1.6 7.75,-0.49 7.75,1.35 0,0.74 -0.49,1.23 -1.23,1.23 -0.62,0 -1.23,-0.49 -1.23,-1.23 0,-0.62 -0.62,-1.23 -1.35,-1.23 -0.74,0 -1.11,1.11 -0.74,2.46 0.49,1.72 0,2.46 -1.35,2.58 -1.35,0 -1.48,0.25 -0.49,0.74 0.74,0.25 1.23,1.11 0.86,1.72 -1.72,2.71 6.15,2.22 17.72,-1.11 6.77,-1.97 12.43,-3.32 12.43,-3.08 0,0.25 -0.49,1.48 -1.11,2.71 -0.86,1.6 -0.37,3.08 2.46,6.03 2.09,2.22 4.31,3.94 4.92,3.94 0.74,0 0.86,0.62 0.49,1.23 -0.37,0.74 0.12,1.23 1.11,1.23 1.11,0 1.97,0.62 1.97,1.35 0,0.62 0.74,0.86 1.48,0.37 2.09,-1.35 5.91,-1.48 5.17,-0.25 -0.37,0.49 0.49,0.98 1.97,0.98 1.6,0 2.34,0.49 1.72,1.35 -0.49,0.86 0.12,0.86 1.97,-0.12 5.54,-2.95 3.45,-0.12 -6.77,9.72 -10.34,9.6 -10.83,9.97 -16.37,9.85 -3.2,-0.12 -7.63,-0.74 -9.97,-1.48 z"
       id="path175" />
    <path
       d="m 466.46,448 c 2.46,-2.46 5.66,-3.45 4.43,-1.35 -0.62,0.98 10.22,-0.74 23.26,-3.57 2.71,-0.62 5.05,-0.86 5.42,-0.62 1.48,1.6 -23.14,7.88 -30.89,8 H 464 Z"
       id="path176" />
    <path
       d="m 572.31,445.54 c 0,-1.97 0.49,-3.69 1.11,-3.69 0.62,0 1.35,-1.11 1.72,-2.46 0.86,-3.45 5.42,-3.32 5.17,0.12 -0.12,1.48 -1.11,3.08 -2.22,3.82 -1.23,0.62 -1.85,1.6 -1.6,2.09 0.37,0.49 -0.49,1.48 -1.85,2.34 -2.09,1.35 -2.34,1.11 -2.34,-2.22 z"
       id="path177" />
    <path
       d="m 475.45,444.68 c 1.48,-0.37 2.09,-1.35 1.72,-2.71 -0.49,-2.09 1.72,-5.05 3.94,-5.05 0.74,0 1.97,-1.11 2.83,-2.46 0.86,-1.35 2.58,-2.46 3.69,-2.46 1.23,0 2.22,-0.49 2.22,-1.23 0,-0.62 1.35,-1.23 2.95,-1.23 1.6,0 3.57,-0.86 4.43,-1.85 0.86,-0.98 1.97,-1.48 2.58,-1.11 0.62,0.37 1.11,-0.25 1.11,-1.23 0,-1.11 0.98,-1.97 2.34,-1.97 1.35,0 2.83,-0.62 3.2,-1.35 0.49,-0.74 1.6,-0.98 2.58,-0.62 0.98,0.37 1.72,0.25 1.72,-0.25 0,-1.35 9.11,-6.4 11.57,-6.4 1.11,0 3.2,-0.74 4.8,-1.48 3.94,-2.34 15.63,-14.15 14.77,-15.02 -0.49,-0.37 0.12,-0.74 1.35,-0.74 1.97,0 1.97,0.25 -0.37,3.45 -1.35,1.85 -6.4,7.26 -11.45,12.18 -8.86,8.74 -16.25,13.91 -26.71,18.83 -2.95,1.35 -6.52,3.82 -8,5.42 -1.35,1.48 -3.69,3.2 -5.05,3.82 -3.45,1.23 -15.75,4.18 -17.23,4.06 -0.62,0 -0.25,-0.25 0.98,-0.62 z"
       id="path178" />
    <path
       d="m 375.26,427.82 c 7.14,-9.23 19.08,-16.62 37.91,-23.26 12.8,-4.68 23.38,-10.22 42.22,-22.28 24.37,-15.75 34.09,-23.88 39.26,-32.98 1.85,-3.2 3.69,-5.66 4.06,-5.29 0.37,0.37 1.6,-0.74 2.71,-2.46 1.11,-1.72 3.2,-3.08 4.55,-3.08 1.35,0 2.09,-0.49 1.72,-1.23 -0.37,-0.62 -0.12,-1.23 0.49,-1.23 0.74,0 1.35,0.62 1.35,1.48 0,0.74 1.11,0.37 2.46,-0.86 1.6,-1.48 2.46,-1.72 2.46,-0.62 0,0.74 0.74,1.23 1.6,0.86 1.97,-0.74 2.09,-0.49 2.83,10.58 0.37,4.8 0.12,8.98 -0.49,9.85 -0.74,0.86 -1.72,3.69 -2.22,6.4 -1.35,6.77 -1.35,7.26 -0.12,8.12 0.74,0.49 0.74,2.71 0.12,5.54 -0.86,3.69 -2.09,5.29 -5.42,6.89 -3.57,1.85 -3.82,2.22 -1.48,2.22 1.72,0 2.71,0.74 2.71,2.22 0,1.97 -2.09,2.34 -17.6,3.69 -19.2,1.72 -38.77,5.66 -51.57,10.58 -8.12,2.95 -8.37,3.08 -8.37,0.62 0,-2.22 -0.49,-2.09 -7.38,1.6 -4.06,2.22 -6.52,4.18 -5.54,4.43 3.08,0.74 2.09,1.85 -7.14,7.88 -4.92,3.2 -11.32,7.63 -14.28,9.85 -3.69,2.71 -5.54,3.57 -5.91,2.46 -0.37,-0.74 -1.11,-1.23 -1.72,-0.86 -0.62,0.37 -5.17,0.86 -10.09,1.11 -8.98,0.37 -9.11,0.37 -7.14,-2.22 z"
       id="path179" />
    <path
       d="m 516.92,333.66 c 0,-1.11 -1.72,-1.35 -5.54,-0.98 -2.95,0.25 -5.17,0 -4.8,-0.62 0.98,-1.48 10.09,-1.23 10.95,0.37 0.49,0.74 0.49,1.6 0.12,1.97 -0.37,0.49 -0.74,0.12 -0.74,-0.74 z"
       id="path180" />
  </g>
  <g
     fill="#19a895"
     id="g185"
     transform="translate(-260.06349,-325.07937)">
    <path
       d="m 398.77,534.4 c 0,-1.85 1.23,-2.58 5.66,-3.2 3.69,-0.49 6.4,-0.25 7.51,0.74 2.46,1.97 0.74,3.08 -6.65,3.94 -5.91,0.74 -6.52,0.62 -6.52,-1.48 z"
       id="path181" />
    <path
       d="m 467.08,532.92 c 1.23,-1.35 2.71,-2.46 3.32,-2.46 0.49,0 0.98,1.11 0.98,2.46 0,1.85 -0.86,2.46 -3.32,2.46 -3.08,0 -3.2,0 -0.98,-2.46 z"
       id="path182" />
    <path
       d="m 448,509.54 c 0,-17.6 0.12,-18.46 2.46,-18.46 2.34,0 2.46,0.86 2.46,12.55 v 12.55 l 4.06,-3.94 c 2.95,-2.83 5.17,-3.94 8.25,-3.94 h 4.31 l -9.85,9.85 c -5.42,5.42 -10.22,9.85 -10.71,9.85 -0.62,0 -0.98,-8.25 -0.98,-18.46 z"
       id="path183" />
    <path
       d="m 475.45,524.31 c 0.98,-1.48 3.08,-3.57 4.55,-4.55 2.58,-1.85 2.58,-1.72 2.22,2.22 -0.37,3.69 -0.86,4.18 -4.55,4.55 -3.94,0.37 -4.06,0.37 -2.22,-2.22 z"
       id="path184" />
    <path
       d="m 491.57,495.88 c -2.58,-2.83 -5.17,-2.95 -8.86,-0.37 -2.58,1.85 -2.71,1.72 -2.71,-1.72 0,-4.06 1.72,-5.17 7.75,-5.17 2.22,0 6.15,-0.86 8.86,-1.72 l 4.92,-1.72 -4.92,-1.23 c -2.71,-0.74 -9.23,-1.6 -14.4,-1.97 -8.49,-0.74 -9.6,-0.62 -11.82,1.72 -1.72,1.97 -3.57,2.58 -6.52,2.22 -5.54,-0.49 -5.91,-3.69 -1.72,-18.95 1.85,-6.52 2.95,-13.17 2.58,-14.65 -0.86,-3.08 1.11,-4.43 7.26,-5.17 14.52,-1.48 58.83,-12.92 82.46,-21.29 13.54,-4.8 35.45,-15.88 37.78,-19.08 4.18,-5.66 -4.55,18.71 -10.58,29.42 -4.68,8.37 -21.42,27.69 -25.23,29.17 -1.11,0.49 -3.45,2.22 -5.29,3.94 -1.85,1.72 -3.57,2.71 -3.94,2.34 -0.37,-0.37 -0.74,0 -0.74,0.74 0,0.86 -0.86,1.48 -1.85,1.48 -0.98,0 -2.95,1.11 -4.18,2.34 -1.35,1.35 -2.71,2.09 -3.08,1.6 -0.37,-0.37 -0.74,0.12 -0.74,0.98 0,0.86 -0.37,1.35 -0.74,0.86 -0.49,-0.37 -1.6,0.12 -2.58,1.11 -0.98,0.98 -2.22,1.48 -2.83,1.11 -0.62,-0.37 -0.86,0.62 -0.62,2.22 0.49,2.58 -0.25,3.2 -7.14,5.54 -4.18,1.48 -12.43,4.06 -18.34,5.66 -10.46,2.83 -10.71,2.83 -12.8,0.62 z"
       id="path185" />
  </g>
  <g
     fill="#0b92b5"
     id="g237"
     transform="translate(-260.06349,-325.07937)">
    <path
       d="m 794.83,565.29 c -4.43,-1.11 -2.46,-4.06 2.71,-4.06 5.66,0 16,-2.58 16,-3.94 0,-0.49 1.11,-0.98 2.46,-0.98 1.35,0 2.46,-0.74 2.46,-1.6 0,-2.83 4.31,-5.78 8.49,-5.78 4.06,0 4.06,0.12 3.57,4.92 -0.25,2.71 0,4.92 0.49,4.92 0.62,0 0.98,1.11 0.98,2.46 0,1.6 -0.86,2.46 -2.46,2.46 -2.09,0 -2.46,-0.86 -2.46,-5.05 v -5.05 l -4.55,3.57 c -2.58,1.97 -6.65,4.43 -8.98,5.54 -4.68,2.09 -15.26,3.57 -18.71,2.58 z"
       id="path186" />
    <path
       d="m 1007.02,564.68 c -7.26,-1.11 -11.32,-2.83 -11.32,-4.8 0,-0.86 1.85,-1.11 5.29,-0.62 2.83,0.37 9.23,1.11 14.15,1.48 6.28,0.62 8.86,1.35 8.86,2.46 0,0.98 -0.98,1.85 -2.09,1.97 -5.78,0.49 -8.86,0.37 -14.89,-0.49 z"
       id="path187" />
    <path
       d="m 1123.69,565.05 c -4.92,-0.98 -7.38,-2.22 -7.38,-3.69 0,-0.49 6.15,-0.86 13.78,-0.86 9.97,0.12 13.78,-0.25 14.15,-1.35 0.37,-0.86 1.6,-1.6 2.95,-1.6 1.23,0 2.34,-0.49 2.34,-1.23 0,-0.62 0.86,-1.23 1.85,-1.23 0.98,0 1.85,-0.49 1.85,-1.23 0,-0.62 1.72,-1.23 3.69,-1.23 3.2,0 3.69,-0.37 3.69,-3.57 0,-1.97 0.49,-3.82 0.98,-4.06 2.22,-0.86 8,-16.62 8.49,-23.26 0.74,-7.88 -2.34,-22.52 -5.42,-25.48 -0.86,-0.86 -1.6,-2.34 -1.6,-3.32 0,-0.86 -0.86,-1.85 -1.85,-2.34 -0.98,-0.37 -1.85,-1.72 -1.85,-3.08 0,-1.6 -0.98,-2.58 -2.71,-2.83 -2.09,-0.25 -2.95,-1.35 -3.2,-3.69 -0.49,-4.55 1.23,-4.31 7.02,0.98 6.03,5.42 11.82,16.98 13.66,27.32 1.72,9.72 0,22.52 -4.31,31.88 -6.15,13.42 -19.57,22.65 -35.2,24.12 -3.69,0.37 -8.62,0.25 -10.95,-0.25 z"
       id="path188" />
    <path
       d="m 691.69,548.8 v -14.89 l 5.91,-6.03 c 5.78,-6.03 8.37,-6.89 14.77,-5.29 1.48,0.49 2.71,1.6 2.71,2.46 0,0.98 0.62,1.72 1.23,1.72 0.74,0 1.23,1.72 1.23,3.69 0,2.83 0.49,3.69 2.46,3.69 1.35,0 2.46,0.86 2.46,1.85 0,0.98 0.62,1.85 1.23,1.85 0.74,0 1.23,1.97 1.23,4.31 0,3.82 0.37,4.31 3.08,4.31 2.71,0 3.08,0.49 3.08,4.43 0,4.92 -1.23,4.68 -5.29,-1.35 -1.48,-2.22 -5.91,-8.74 -9.85,-14.52 l -7.26,-10.58 -6.03,6.4 c -6.4,6.89 -6.28,6.28 -6.65,28.92 0,2.95 -0.62,3.94 -2.09,3.94 -1.97,0 -2.22,-1.48 -2.22,-14.89 z"
       id="path189" />
    <path
       d="m 754.46,561.85 c 0,-0.98 -0.49,-1.85 -1.23,-1.85 -0.62,0 -1.23,-1.11 -1.23,-2.46 0,-1.35 -0.86,-2.46 -1.85,-2.46 -1.35,0 -1.85,-1.35 -1.85,-4.55 l 0.12,-4.68 3.08,3.69 c 3.57,4.31 4.06,4.92 7.63,10.22 l 2.83,3.94 h -3.69 c -2.58,0 -3.82,-0.62 -3.82,-1.85 z"
       id="path190" />
    <path
       d="m 780.43,560.98 c -9.85,-6.15 -14.03,-13.05 -14.15,-23.75 -0.12,-7.51 2.34,-14.77 6.03,-17.85 1.6,-1.35 1.85,-0.86 1.85,2.95 0,2.46 -0.49,4.43 -1.11,4.43 -1.72,0 -2.83,8.37 -1.85,15.51 0.49,4.43 1.35,6.65 2.46,6.65 0.98,0 1.72,1.11 1.72,2.46 0,1.6 0.86,2.46 2.46,2.46 1.6,0 2.46,0.86 2.46,2.46 0,1.97 0.86,2.46 4.31,2.46 3.45,0 4.31,0.49 4.31,2.46 0,3.2 -3.08,3.08 -8.49,-0.25 z"
       id="path191" />
    <path
       d="m 884.92,557.05 c 0,-5.17 0.49,-6.89 1.85,-6.89 0.98,0 2.09,1.72 2.46,4.18 1.11,5.66 0.37,8.62 -2.22,9.11 -1.72,0.37 -2.09,-0.62 -2.09,-6.4 z"
       id="path192" />
    <path
       d="m 1027.69,561.23 c 0,-1.97 0.86,-2.46 4.31,-2.46 4.8,0 5.66,1.72 1.97,3.69 -3.82,1.97 -6.28,1.48 -6.28,-1.23 z"
       id="path193" />
    <path
       d="m 1110.77,560 c -1.48,-0.49 -3.32,-1.85 -4.18,-2.95 -1.48,-1.72 -1.11,-1.97 2.83,-1.97 3.94,0 4.43,0.37 4.43,3.08 0,1.72 -0.12,3.08 -0.25,2.95 -0.25,0 -1.48,-0.49 -2.83,-1.11 z"
       id="path194" />
    <path
       d="m 989.91,558.77 c -8.12,-3.32 -20.06,-20.31 -21.78,-31.02 -0.62,-3.94 -0.37,-4.68 1.48,-4.68 1.6,0 2.58,1.6 3.69,5.54 0.86,3.08 1.48,6.65 1.48,8 0,1.35 0.86,2.46 1.85,2.46 0.98,0 1.85,0.86 1.85,1.85 0,0.98 0.62,1.85 1.23,1.85 0.74,0 1.23,1.72 1.23,3.69 0,3.32 0.37,3.69 3.69,3.69 2.46,0 3.69,0.62 3.69,1.85 0,0.98 1.11,1.85 2.46,1.85 1.85,0 2.46,0.86 2.46,3.08 0,1.72 -0.12,3.08 -0.25,2.95 -0.25,0 -1.6,-0.49 -3.08,-1.11 z"
       id="path195" />
    <path
       d="m 931.2,553.6 c -0.49,-3.2 -0.25,-34.71 0.37,-42.46 0.12,-0.86 0.98,-1.6 1.97,-1.6 1.6,0 1.85,3.45 1.85,24 0,20.18 -0.25,24 -1.85,24 -0.98,0 -1.97,-1.6 -2.34,-3.94 z"
       id="path196" />
    <path
       d="m 792.37,551.75 c -1.23,-0.25 -2.22,-1.11 -2.22,-1.72 0,-0.62 -0.86,-1.11 -1.85,-1.11 -0.98,0 -1.85,-0.86 -1.85,-1.85 0,-0.98 -0.49,-1.85 -1.23,-1.85 -0.62,0 -1.23,-1.97 -1.23,-4.31 0,-5.42 3.2,-5.91 4.31,-0.74 0.62,2.71 2.09,4.31 6.03,6.15 2.83,1.48 5.91,2.58 6.65,2.58 0.86,0 1.48,0.86 1.48,1.85 0,1.85 -5.05,2.34 -10.09,0.98 z"
       id="path197" />
    <path
       d="m 806.15,550.77 c 0,-0.98 0.74,-1.85 1.6,-1.85 0.98,0 4.31,-1.35 7.38,-2.95 l 5.78,-2.83 v 3.32 c 0,2.71 -0.74,3.69 -3.82,4.8 -5.66,1.97 -10.95,1.72 -10.95,-0.49 z"
       id="path198" />
    <path
       d="m 1004.06,549.29 c -1.23,-0.25 -2.22,-1.11 -2.22,-1.72 0,-0.62 -1.11,-1.11 -2.46,-1.11 -1.85,0 -2.46,-0.86 -2.46,-3.08 0,-2.46 -0.62,-3.08 -3.08,-3.08 -2.71,0 -3.08,-0.49 -3.08,-4.31 v -4.43 l 5.91,6.03 c 4.06,4.18 7.51,6.4 11.69,7.51 6.77,1.97 8,5.17 1.85,4.92 -2.22,-0.12 -5.05,-0.37 -6.15,-0.74 z"
       id="path199" />
    <path
       d="m 1017.85,548.31 c 0,-0.98 0.74,-1.85 1.6,-1.97 3.82,-0.25 6.4,-1.11 10.83,-4.06 l 4.8,-3.2 v 3.69 c 0,3.45 -0.37,3.69 -4.31,3.69 -2.95,0 -4.31,0.62 -4.31,1.85 0,1.23 -1.35,1.85 -4.31,1.85 -2.95,0 -4.31,-0.62 -4.31,-1.85 z"
       id="path200" />
    <path
       d="m 1129.85,548.31 c 0,-0.98 1.72,-2.09 4.31,-2.58 2.95,-0.49 6.4,-2.83 10.46,-6.77 l 6.15,-6.03 v 4.31 c 0,3.45 -0.49,4.31 -2.46,4.31 -1.6,0 -2.46,0.86 -2.46,2.46 0,1.97 -0.86,2.46 -3.69,2.46 -2.46,0 -3.69,0.62 -3.69,1.85 0,1.23 -1.35,1.85 -4.31,1.85 -2.95,0 -4.31,-0.62 -4.31,-1.85 z"
       id="path201" />
    <path
       d="m 1111.14,547.45 c -0.98,-0.86 -2.83,-2.22 -4.06,-2.95 -1.72,-0.86 -2.58,-2.95 -2.83,-6.15 l -0.37,-4.8 4.18,4.31 c 2.22,2.34 6.15,5.42 8.62,6.65 2.46,1.35 4.55,2.83 4.55,3.45 0,1.6 -8.25,1.11 -10.09,-0.49 z"
       id="path202" />
    <path
       d="m 1054.77,542.52 c 0,-2.46 0.74,-5.29 1.72,-6.28 0.98,-0.98 2.09,-4.31 2.58,-7.38 0.74,-4.55 1.35,-5.78 3.2,-5.78 1.48,0 2.34,0.86 2.34,2.46 0,4.18 -4.8,16.37 -7.38,18.95 -2.46,2.46 -2.46,2.46 -2.46,-1.97 z"
       id="path203" />
    <path
       d="m 739.69,540.92 c 0,-0.98 -0.49,-1.85 -1.23,-1.85 -0.62,0 -1.23,-1.11 -1.23,-2.46 0,-1.35 -0.86,-2.46 -1.85,-2.46 -0.98,0 -1.85,-0.86 -1.85,-1.85 0,-0.98 -0.49,-1.85 -1.23,-1.85 -0.62,0 -1.23,-0.86 -1.23,-1.85 0,-0.98 -0.49,-1.85 -1.23,-1.85 -0.62,0 -1.23,-1.97 -1.23,-4.43 0,-2.34 0.49,-4.06 1.11,-3.57 1.48,0.86 14.77,19.69 15.63,22.15 0.62,1.35 -0.12,1.85 -2.46,1.85 -1.97,0 -3.2,-0.74 -3.2,-1.85 z"
       id="path204" />
    <path
       d="m 824.74,536.98 c 1.72,-4.43 2.71,-13.91 1.48,-14.03 -0.62,0 -5.05,-0.12 -9.85,-0.12 -7.88,-0.12 -8.98,-0.37 -8.98,-2.46 0,-1.97 1.11,-2.22 9.85,-2.22 8.98,0 9.85,0.25 9.85,2.46 0,1.48 0.86,2.46 1.97,2.46 1.72,0 1.97,0.98 1.23,6.52 -0.37,3.45 -0.74,7.38 -0.74,8.62 0,1.35 -0.98,2.09 -3.08,2.09 -2.83,0 -2.95,-0.25 -1.72,-3.32 z"
       id="path205" />
    <path
       d="m 884.92,531.69 c 0,-5.29 2.83,-7.02 4.06,-2.46 0.86,3.45 -0.37,7.38 -2.34,7.38 -1.23,0 -1.72,-1.6 -1.72,-4.92 z"
       id="path206" />
    <path
       d="m 1039.51,532.06 c 1.97,-4.8 2.71,-7.14 2.83,-9.85 0.12,-0.86 0.98,-1.6 1.97,-1.6 2.22,0 2.46,4.68 0.49,11.45 -0.98,3.69 -1.85,4.55 -4.31,4.55 h -2.95 z"
       id="path207" />
    <path
       d="m 1097.85,526.15 c 0,-4.92 2.95,-6.03 4.18,-1.48 1.23,4.55 0.86,5.78 -1.72,5.78 -1.97,0 -2.46,-0.86 -2.46,-4.31 z"
       id="path208" />
    <path
       d="m 985.85,524.92 c 0,-2.95 0.62,-4.31 1.85,-4.31 0.98,0 1.85,0.74 1.97,1.6 0,0.74 0.25,2.71 0.62,4.31 0.37,2.09 -0.12,2.71 -1.97,2.71 -1.97,0 -2.46,-0.86 -2.46,-4.31 z"
       id="path209" />
    <path
       d="m 793.85,521.85 c 0,-1.97 0.86,-2.46 4.31,-2.46 2.95,0 4.31,0.62 4.31,1.85 0,0.98 -0.74,1.85 -1.48,1.97 -0.86,0 -2.83,0.25 -4.31,0.62 -2.22,0.37 -2.83,-0.12 -2.83,-1.97 z"
       id="path210" />
    <path
       d="m 884.92,513.85 c 0,-4.55 0.49,-8 1.23,-8 0.74,0 1.23,-1.97 1.23,-4.31 0,-3.82 0.37,-4.31 3.08,-4.31 2.58,0 3.08,-0.62 3.08,-3.69 0,-3.45 0.25,-3.69 4.68,-3.69 l 4.55,0.12 -4.68,3.94 c -5.91,5.17 -8.49,10.09 -8.37,16.25 0.12,7.14 -1.11,11.69 -3.08,11.69 -1.35,0 -1.72,-1.97 -1.72,-8 z"
       id="path211" />
    <path
       d="m 778.22,514.71 c 1.97,-2.09 8.86,-4.55 16.62,-5.78 3.32,-0.49 3.94,-0.25 3.94,1.72 0,1.97 -1.23,2.58 -6.77,3.2 -3.69,0.49 -6.77,1.35 -6.77,1.97 0,0.62 -1.97,1.11 -4.55,1.11 -4.18,0 -4.31,-0.12 -2.46,-2.22 z"
       id="path212" />
    <path
       d="m 721.6,509.29 c 0.98,-7.63 3.94,-11.2 8.86,-10.58 l 3.57,0.37 -4.68,4.8 c -4.06,4.31 -4.43,5.29 -3.32,8.37 1.11,3.2 0.98,3.45 -1.97,3.45 -3.08,0 -3.2,-0.12 -2.46,-6.4 z"
       id="path213" />
    <path
       d="m 985.85,511.38 c 0,-2.34 0.62,-4.31 1.23,-4.31 0.74,0 1.23,-1.6 1.23,-3.69 0,-3.08 0.49,-3.69 3.08,-3.69 2.34,0 2.83,0.49 2.22,2.22 -0.37,1.11 -1.23,2.71 -1.72,3.45 -0.98,1.23 -2.09,5.42 -2.22,8.86 -0.12,0.74 -0.98,1.48 -1.97,1.48 -1.23,0 -1.85,-1.35 -1.85,-4.31 z"
       id="path214" />
    <path
       d="m 1097.85,510.15 c 0,-2.34 0.62,-4.31 1.23,-4.31 0.74,0 1.23,-1.6 1.23,-3.69 0,-3.08 0.49,-3.69 3.08,-3.69 2.34,0 2.83,0.49 2.22,2.22 -0.37,1.11 -1.23,2.71 -1.72,3.45 -0.98,1.23 -2.09,5.42 -2.22,8.86 -0.12,0.74 -0.98,1.48 -1.97,1.48 -1.23,0 -1.85,-1.35 -1.85,-4.31 z"
       id="path215" />
    <path
       d="m 967.88,510.52 c 0.37,-1.6 0.62,-3.57 0.62,-4.31 0.12,-0.86 0.98,-1.6 1.97,-1.6 1.23,0 1.85,1.35 1.85,4.31 0,3.45 -0.49,4.31 -2.46,4.31 -1.85,0 -2.34,-0.62 -1.97,-2.71 z"
       id="path216" />
    <path
       d="m 1058.71,507.69 c -1.85,-6.89 -1.85,-11.69 -0.12,-11.69 1.6,0 4.31,6.52 5.29,12.68 0.62,3.82 0.37,4.55 -1.48,4.55 -1.6,0 -2.58,-1.6 -3.69,-5.54 z"
       id="path217" />
    <path
       d="m 807.38,510.28 c 0,-0.98 1.72,-2.09 3.82,-2.58 5.17,-1.11 12.18,0.25 12.18,2.46 0,1.48 -1.85,1.85 -8,1.85 -6.03,0 -8,-0.37 -8,-1.72 z"
       id="path218" />
    <path
       d="m 1038.52,502.77 -3.45,-5.54 h 3.57 c 3.82,0 5.05,1.72 5.05,7.51 0,4.92 -1.35,4.43 -5.17,-1.97 z"
       id="path219" />
    <path
       d="m 842.09,498.83 c -0.86,-3.32 -1.97,-8.12 -2.34,-10.83 -0.62,-4.92 -0.62,-4.92 1.85,-2.58 2.83,2.46 4.68,7.14 5.66,14.65 0.62,3.82 0.37,4.55 -1.48,4.55 -1.48,0 -2.58,-1.72 -3.69,-5.78 z"
       id="path220" />
    <path
       d="m 929.23,500.06 c -0.98,-1.97 -1.97,-3.82 -2.22,-4.31 -0.25,-0.62 0.98,-0.98 2.71,-0.98 2.83,0 3.2,0.49 3.2,4.31 0,5.17 -1.48,5.54 -3.69,0.98 z"
       id="path221" />
    <path
       d="m 971.08,499.08 c 0,-2.09 2.95,-7.26 6.4,-10.95 2.22,-2.34 2.22,-2.34 2.22,2.09 0,3.2 -0.49,4.55 -1.85,4.55 -1.11,0 -1.85,1.11 -1.85,3.08 0,2.22 -0.62,3.08 -2.46,3.08 -1.35,0 -2.46,-0.86 -2.46,-1.85 z"
       id="path222" />
    <path
       d="m 339.45,496.86 c -1.97,-0.74 -3.45,-1.72 -3.45,-2.34 0,-0.49 -0.62,-0.98 -1.35,-0.98 -1.97,0 -4.68,-3.82 -4.8,-6.4 0,-2.58 1.23,-2.83 18.46,-4.68 40.86,-4.55 81.48,-15.51 109.54,-29.54 5.42,-2.71 10.34,-4.92 11.08,-4.92 1.97,0 1.48,5.05 -1.97,17.97 -1.72,6.77 -3.2,13.78 -3.2,15.75 0.25,10.46 -13.05,21.29 -15.26,12.55 -1.6,-6.65 -9.23,-9.35 -14.03,-5.05 -1.35,1.23 -2.46,3.45 -2.46,4.92 0,2.34 -0.86,2.83 -5.66,3.57 -11.2,1.48 -27.2,0.86 -28.8,-1.11 -1.97,-2.46 -6.65,-2.34 -8.74,0.12 -1.35,1.6 -2.83,1.85 -7.88,0.98 -6.77,-1.11 -25.48,-1.11 -33.23,-0.12 -2.71,0.37 -6.4,0.12 -8.25,-0.74 z"
       id="path223" />
    <path
       d="m 710.28,495.14 c 0.86,-1.23 3.2,-3.69 5.05,-5.54 l 3.45,-3.32 v 4.06 c 0,4.92 -1.85,6.89 -6.52,6.89 -3.2,0 -3.45,-0.25 -1.97,-2.09 z"
       id="path224" />
    <path
       d="m 777.35,493.29 c -2.71,-3.82 -2.46,-4.68 1.11,-4.68 2.58,0 3.08,0.62 3.08,3.69 0,4.43 -1.6,4.68 -4.18,0.98 z"
       id="path225" />
    <path
       d="m 1052.31,490.22 0.12,-4.68 2.95,3.45 c 3.94,4.43 3.82,5.78 0,5.78 -2.71,0 -3.08,-0.49 -3.08,-4.55 z"
       id="path226" />
    <path
       d="m 945.23,491.08 c 0,-1.35 -0.49,-2.46 -1.23,-2.46 -0.62,0 -1.23,-1.97 -1.23,-4.31 0,-3.94 -0.25,-4.31 -3.57,-4.31 -5.42,0 -7.51,-1.23 -7.51,-4.43 0,-2.58 0.25,-2.71 3.57,-1.6 1.97,0.74 5.42,3.32 7.63,5.91 7.51,8.25 9.35,13.66 4.8,13.66 -1.6,0 -2.46,-0.86 -2.46,-2.46 z"
       id="path227" />
    <path
       d="m 795.08,487.38 c 0,-1.97 0.86,-2.46 4.31,-2.46 2.95,0 4.31,0.62 4.31,1.85 0,0.98 -0.74,1.85 -1.48,1.97 -0.86,0 -2.83,0.25 -4.31,0.62 -2.22,0.37 -2.83,-0.12 -2.83,-1.97 z"
       id="path228" />
    <path
       d="m 887.51,481.6 0.25,-4.68 0.74,4.06 0.74,4.18 2.71,-3.57 c 5.05,-7.02 21.91,-12.8 31.02,-10.83 6.4,1.35 4.8,4.31 -2.34,4.31 -6.77,0 -17.23,2.46 -17.23,3.94 0,0.49 -0.62,0.98 -1.35,0.98 -0.74,0 -2.46,1.35 -3.82,3.08 -1.72,2.22 -3.57,3.08 -6.65,3.08 -4.06,0 -4.18,-0.12 -4.06,-4.55 z"
       id="path229" />
    <path
       d="m 773.66,481.48 c 4.18,-3.82 15.88,-8.74 24.37,-10.09 7.14,-1.35 13.29,-1.11 23.51,0.62 4.92,0.86 12.68,4.43 14.77,6.77 2.22,2.34 2.09,2.46 -1.35,2.46 -1.97,0 -6.89,-1.35 -10.95,-3.08 -4.92,-1.97 -9.85,-3.08 -14.65,-3.08 -8.25,0 -21.66,2.46 -21.66,3.94 0,0.49 -1.6,0.98 -3.69,0.98 -2.46,0 -3.69,0.62 -3.69,1.85 0,1.35 -1.35,1.85 -4.55,1.85 -4.43,0 -4.43,0 -2.09,-2.22 z"
       id="path230" />
    <path
       d="m 983.38,481.72 c 2.95,-3.45 11.69,-7.75 19.69,-9.6 15.88,-3.69 33.85,-0.25 43.69,8.37 l 3.69,3.2 h -4.55 c -2.58,0 -4.68,-0.49 -4.68,-1.23 0,-0.62 -0.74,-1.23 -1.72,-1.23 -0.98,0 -2.58,-0.74 -3.45,-1.6 -2.58,-2.58 -16.25,-4.92 -24.12,-4.31 -6.77,0.74 -20.06,5.29 -20.92,7.38 -0.25,0.49 -2.46,0.98 -4.8,0.98 -3.82,0 -4.18,-0.25 -2.83,-1.97 z"
       id="path231" />
    <path
       d="m 1107.2,479.02 c 1.23,-1.23 3.32,-2.58 4.55,-3.08 1.6,-0.62 2.09,-0.12 2.09,2.22 0,2.71 -0.49,3.08 -4.55,3.08 -4.43,0 -4.43,0 -2.09,-2.22 z"
       id="path232" />
    <path
       d="m 753.23,475.08 c 0,-1.6 0.86,-2.46 2.46,-2.46 1.35,0 2.46,0.37 2.46,0.98 0,0.49 -1.11,1.6 -2.46,2.46 -2.22,1.35 -2.46,1.23 -2.46,-0.98 z"
       id="path233" />
    <path
       d="m 1139.69,476.06 c -1.85,-0.74 -7.14,-0.86 -13.17,-0.37 -10.46,0.74 -12.92,-0.25 -7.51,-3.2 6.89,-3.69 31.75,-0.74 31.75,3.82 0,1.6 -7.14,1.48 -11.08,-0.25 z"
       id="path234" />
    <text
       xml:space="preserve"
       style="font-size:193.333px;writing-mode:lr-tb;direction:ltr;fill:#1e2344;fill-opacity:1"
       x="1177.7876"
       y="566.38831"
       id="text2"><tspan
         sodipodi:role="line"
         id="tspan2"
         x="1177.7876"
         y="566.38831"
         style="font-style:normal;font-variant:normal;font-weight:bold;font-stretch:normal;font-size:193.333px;font-family:Carlito;-inkscape-font-specification:Carlito;fill:#1e2344;fill-opacity:1">y</tspan></text>
  </g>
  <g
     fill="#28be6c"
     id="g240"
     transform="translate(-260.06349,-325.07937)">
    <path
       d="m 563.45,524.18 c -1.23,-0.62 -2.22,-1.97 -2.22,-2.83 0,-1.11 -3.57,-1.85 -13.17,-2.34 -18.58,-1.23 -47.26,-5.54 -50.58,-7.75 -2.34,-1.6 -2.83,-2.71 -2.22,-5.78 0.37,-2.46 0,-4.8 -1.11,-6.28 -4.55,-5.91 -2.34,-7.75 17.48,-14.89 11.82,-4.18 18.09,-5.54 15.75,-3.2 -1.35,1.23 -16.98,6.77 -25.11,8.74 -2.83,0.74 -5.05,1.6 -4.8,1.85 0.25,0.25 3.45,-0.25 7.14,-1.23 3.69,-0.98 8.37,-2.09 10.34,-2.46 1.97,-0.37 4.68,-1.35 6.15,-2.09 1.35,-0.86 3.32,-1.6 4.18,-1.72 0.86,-0.12 2.95,-1.11 4.55,-2.22 3.94,-2.58 5.66,-2.58 2.09,0 -2.58,1.85 -2.71,2.09 -0.98,4.06 1.11,1.23 1.6,2.58 1.11,3.08 -0.62,0.62 2.95,0.62 7.75,0.12 8.25,-0.74 8.98,-0.62 10.83,1.97 1.11,1.6 1.97,2.22 1.97,1.35 0,-1.23 0.37,-1.23 1.72,0 0.98,0.86 1.72,1.85 1.72,2.22 -0.25,4.55 0.49,6.15 2.71,6.15 1.35,0 2.46,0.62 2.46,1.23 0,0.74 0.98,1.23 2.22,1.23 1.35,0 2.95,1.35 3.69,3.08 0.86,1.72 2.95,3.69 4.8,4.43 5.29,2.09 14.65,2.22 18.46,0.37 l 3.45,-1.72 -3.69,3.2 c -3.57,2.95 -21.78,12.8 -23.63,12.8 -0.62,0 -1.97,-0.62 -3.08,-1.35 z"
       id="path238" />
    <path
       d="m 541.54,472.49 c 0,-1.11 7.63,-5.05 8.25,-4.31 0.37,0.25 -0.62,1.11 -1.97,1.97 -1.48,0.74 -2.46,1.72 -2.09,2.22 0.25,0.49 -0.49,0.98 -1.85,0.98 -1.23,0 -2.34,-0.37 -2.34,-0.86 z"
       id="path239" />
    <path
       d="m 387.82,429.54 c -2.95,-0.62 -2.71,-0.98 3.69,-6.52 15.38,-13.29 44.06,-29.29 57.35,-32 4.18,-0.86 8.62,-2.46 9.85,-3.69 1.35,-1.11 2.71,-2.09 3.2,-2.09 0.37,0 2.09,-1.35 3.82,-3.08 3.32,-3.32 8.25,-3.2 5.42,0.25 -1.11,1.35 -1.11,1.97 0.37,2.95 0.98,0.62 1.23,1.11 0.62,1.11 -1.72,0 1.85,3.69 3.69,3.69 0.98,0 1.72,-0.86 1.72,-1.85 0,-0.98 0.37,-1.85 0.98,-1.97 0.86,0 3.2,-0.37 10.09,-1.6 1.72,-0.25 4.06,-0.12 5.29,0.37 2.22,0.86 2.22,0.98 0.12,2.58 -1.35,1.11 -1.85,1.23 -1.23,0.37 0.49,-1.11 0.12,-1.6 -1.23,-1.6 -1.6,0 -1.72,0.37 -0.49,1.85 1.85,2.22 4.92,2.46 4.92,0.37 0,-1.23 0.37,-1.11 1.11,0.12 0.74,1.11 1.35,1.23 1.85,0.25 0.49,-0.74 0,-2.22 -0.98,-3.32 -2.46,-2.34 -2.46,-3.45 -0.12,-2.58 0.98,0.49 2.09,0.25 2.46,-0.49 0.49,-0.62 1.35,-0.86 1.97,-0.49 0.62,0.49 1.11,0.12 1.11,-0.62 0,-0.74 0.49,-1.11 1.11,-0.62 1.6,0.86 7.63,-1.97 6.77,-3.2 -0.37,-0.62 -0.12,-1.11 0.49,-1.11 0.62,0 1.48,-1.11 1.85,-2.46 0.74,-3.08 3.32,-3.32 3.2,-0.25 0,1.11 -0.98,5.42 -2.09,9.48 l -2.09,7.38 -8.62,0.25 c -13.42,0.49 -29.05,2.71 -44.68,6.65 -17.48,4.18 -39.14,14.52 -53.78,25.6 -9.72,7.14 -11.45,7.75 -17.72,6.28 z m 80.37,-45.05 c 1.11,-0.98 1.97,-2.46 1.97,-3.32 0,-0.74 -1.11,-0.12 -2.46,1.35 -3.69,3.94 -3.2,5.66 0.49,1.97 z"
       id="path240" />
  </g>
  <g
     fill="#0e979b"
     id="g246"
     transform="translate(-260.06349,-325.07937)">
    <path
       d="m 372.68,536.98 c -1.23,-0.25 -2.22,-1.35 -2.22,-2.34 0,-1.35 2.22,-1.72 10.46,-1.72 8.12,0 10.46,0.37 10.46,1.72 0,0.86 -1.23,1.97 -2.71,2.46 -3.2,0.74 -12.8,0.74 -16,-0.12 z"
       id="path241" />
    <path
       d="m 346.46,534.15 c -21.05,-3.94 -40.49,-11.69 -57.6,-23.14 -8.86,-5.78 -23.02,-18.22 -23.02,-20.06 0,-0.62 2.34,-1.11 5.29,-1.11 2.83,0 16.49,-1.11 30.4,-2.46 33.35,-3.2 42.71,-3.82 36.31,-2.58 -3.82,0.74 -4.43,1.11 -2.83,1.85 1.23,0.62 1.85,1.48 1.48,2.09 -0.37,0.62 0.49,1.11 1.97,1.11 1.48,0 2.22,0.62 1.85,1.23 -0.62,1.11 1.85,1.85 4.68,1.35 0.49,0 0.86,0.49 0.86,1.11 0,0.86 0.86,0.86 2.58,-0.12 1.85,-0.86 7.51,-1.11 18.22,-0.62 18.22,0.98 27.45,1.35 38.03,1.72 6.77,0.25 7.63,0.49 7.63,2.71 0,1.35 -0.62,2.46 -1.48,2.46 -0.86,0 1.97,3.57 6.28,7.88 6.4,6.52 7.63,8.37 7.26,11.32 -0.37,3.45 -0.74,3.2 -14.65,-10.34 -8.98,-8.62 -15.14,-13.78 -16.86,-13.78 -2.83,0 -7.63,5.29 -7.63,8.49 0,0.98 4.55,6.52 10.09,12.06 l 10.22,10.22 h -4.43 c -3.94,0 -5.54,-1.11 -13.05,-9.11 l -8.62,-8.98 -10.34,-0.86 c -5.66,-0.49 -15.14,-1.11 -21.05,-1.48 -6.03,-0.49 -10.83,-1.23 -10.83,-1.85 0,-0.62 -0.74,-1.11 -1.6,-1.11 -2.22,0 -8.25,2.95 -8.25,4.06 0,0.49 -1.97,0.86 -4.31,0.86 -2.34,0 -4.31,-0.49 -4.31,-1.23 0,-0.62 -2.71,-1.23 -6.15,-1.23 -3.32,0 -6.15,-0.49 -6.15,-1.23 0,-0.62 -1.11,-1.23 -2.34,-1.23 -1.35,0 -2.58,-0.62 -2.83,-1.35 -0.74,-2.09 -6.77,-1.72 -8.98,0.62 -2.34,2.22 -1.48,6.89 1.35,6.89 0.98,0 1.72,0.86 1.72,1.85 0,0.98 1.11,1.85 2.46,1.85 2.83,0 8.62,2.46 8.62,3.69 0,0.49 1.6,1.23 3.57,1.6 1.97,0.37 4.43,1.6 5.42,2.71 1.11,0.98 2.58,1.85 3.45,1.85 0.74,0 6.52,1.6 12.8,3.69 6.28,1.97 16.12,4.31 22.03,5.17 8.74,1.23 10.58,1.85 10.58,3.69 0,2.71 -1.6,2.71 -17.85,-0.25 z"
       id="path242" />
    <path
       d="m 396.31,534.15 c 0,-2.09 0.86,-2.46 4.92,-2.46 5.54,0 7.02,2.83 2.22,4.18 -5.17,1.35 -7.14,0.86 -7.14,-1.72 z"
       id="path243" />
    <path
       d="m 417.23,496.62 c 0,-1.6 1.72,-2.09 12.06,-3.57 2.09,-0.37 2.71,0.25 2.71,2.46 0,2.83 -0.49,2.95 -7.38,2.95 -5.66,0 -7.38,-0.37 -7.38,-1.85 z"
       id="path244" />
    <path
       d="m 449.23,497.35 c 0,-0.62 -0.37,-2.09 -0.74,-3.08 -0.62,-1.48 -0.25,-1.85 1.23,-1.23 3.2,1.23 7.75,-5.17 12.92,-18.46 5.54,-14.03 6.15,-14.4 2.71,-1.97 -1.35,4.68 -1.97,8.86 -1.6,9.11 0.49,0.25 2.09,-0.74 3.69,-2.22 1.6,-1.85 3.82,-2.71 5.78,-2.58 1.72,0.25 7.38,0.74 12.68,1.23 5.17,0.37 10.34,0.98 11.32,1.23 5.17,1.48 9.85,1.72 9.85,0.62 0,-0.74 1.11,-0.74 2.95,0 1.6,0.62 3.2,0.86 3.45,0.62 1.11,-1.23 10.09,-1.6 12.43,-0.62 l 2.71,1.11 -2.71,0.86 c -1.6,0.37 -2.46,1.35 -1.97,2.09 0.37,0.62 0.25,0.86 -0.49,0.49 -1.72,-1.11 -10.22,1.72 -9.35,3.2 0.37,0.74 0.12,0.86 -0.62,0.37 -1.48,-0.86 -14.65,2.09 -16,3.69 -0.49,0.37 0.25,0.49 1.6,0.12 8.25,-2.46 9.35,-2.09 3.32,0.86 -6.77,3.2 -11.32,4.06 -11.32,2.09 0,-2.58 -5.17,-2.22 -8.49,0.62 -3.32,2.71 -4.55,2.95 -18.46,2.95 -8.25,0 -14.89,-0.49 -14.89,-1.11 z"
       id="path245" />
    <path
       d="m 540.18,473.48 c 1.48,-1.97 8.25,-5.78 9.85,-5.78 1.11,0.12 -3.69,3.57 -7.88,5.78 -3.45,1.85 -3.57,1.85 -1.97,0 z"
       id="path246" />
  </g>
  <g
     fill="#0c8e90"
     id="g249"
     transform="translate(-260.06349,-325.07937)">
    <path
       d="m 348.8,534.28 c -25.72,-4.55 -50.22,-15.14 -67.94,-29.42 -2.83,-2.34 -4.92,-4.55 -4.55,-4.92 0.37,-0.37 1.85,0.49 3.45,1.85 5.29,4.8 8.62,4.43 5.91,-0.62 -0.74,-1.35 -0.49,-2.58 0.62,-3.69 1.35,-1.23 1.72,-1.23 1.72,0 0,1.11 0.37,1.23 0.98,0.25 1.6,-2.58 8,-3.82 12.18,-2.58 2.22,0.74 4.06,1.72 4.06,2.34 0,0.49 0.86,0.98 1.85,0.98 0.98,0 1.85,-0.49 1.85,-1.23 0,-0.62 0.86,-1.23 1.85,-1.23 0.98,0 1.85,0.62 1.85,1.35 0,0.74 1.11,1.11 2.46,0.74 1.72,-0.49 2.46,0 2.46,1.35 0,1.23 0.37,1.6 0.98,0.86 0.49,-0.62 2.83,-1.35 5.17,-1.6 3.2,-0.25 3.82,0 2.46,0.86 -1.11,0.86 -1.23,1.35 -0.37,1.35 0.74,0 1.85,-0.49 2.22,-1.23 0.37,-0.62 3.82,-1.23 7.51,-1.23 4.18,0 6.52,0.49 6.03,1.23 -0.37,0.74 -0.12,1.23 0.49,1.23 0.74,0 1.35,-0.37 1.35,-0.86 0,-0.62 1.35,-1.11 3.08,-1.11 1.72,-0.12 3.08,0.12 3.08,0.62 0,0.74 1.35,0.98 11.45,1.48 3.2,0.12 5.78,0.86 5.78,1.35 0,0.62 0.74,0.74 1.48,0.25 1.97,-1.23 5.91,-1.6 5.91,-0.49 0,1.72 5.66,0.86 8.98,-1.48 l 3.57,-2.58 -1.48,2.71 c -1.97,3.82 -0.37,6.03 14.15,19.2 6.89,6.4 11.69,11.69 11.45,12.8 -0.49,2.71 -8.62,3.57 -31.14,3.57 -12.18,0 -22.65,-0.74 -30.89,-2.09 z"
       id="path247" />
    <path
       d="m 398.77,497.35 c -4.06,-3.57 -4.06,-3.69 -0.98,-2.58 1.85,0.62 9.72,0.74 18.71,0.25 l 15.51,-0.86 v 2.71 c 0,2.71 -0.49,2.83 -8.25,2.83 -4.68,0 -11.08,0.37 -14.52,0.74 -5.66,0.62 -6.52,0.37 -10.46,-3.08 z"
       id="path248" />
    <path
       d="m 449.23,495.88 c 0,-1.85 0.49,-2.34 1.97,-1.85 1.11,0.37 2.46,0.74 3.08,0.74 0.62,0 1.11,0.86 1.11,1.85 0,1.11 -1.11,1.85 -3.08,1.85 -2.34,0 -3.08,-0.62 -3.08,-2.58 z"
       id="path249" />
  </g>
  <g
     fill="#16a66a"
     id="g253"
     transform="translate(-260.06349,-325.07937)">
    <path
       d="m 481.97,536.49 c -6.77,-0.49 -13.05,-1.35 -14.15,-1.72 -1.35,-0.49 2.34,-4.92 13.42,-16 14.4,-14.4 15.14,-15.38 13.66,-18.09 -2.34,-4.31 -4.31,-6.65 -6.28,-7.51 -0.98,-0.49 0.25,-0.62 2.83,-0.37 2.46,0.37 4.55,0.12 4.55,-0.25 0,-0.49 0.98,-0.98 2.22,-0.98 1.11,0 4.06,-0.49 6.4,-0.98 3.69,-0.74 3.32,-0.49 -2.09,2.22 -3.57,1.72 -6.52,3.57 -6.52,4.18 0,2.83 3.94,10.09 5.91,11.2 3.32,1.85 34.95,6.15 50.58,7.14 10.22,0.49 13.29,1.11 12.8,2.34 -1.11,3.08 3.94,4.31 9.6,2.34 8.12,-2.95 6.89,-1.35 -2.22,2.83 -17.72,8 -33.85,11.69 -60.92,13.78 -8.37,0.62 -15.63,1.11 -16.37,0.98 -0.62,0 -6.77,-0.49 -13.42,-1.11 z"
       id="path250" />
    <path
       d="m 449.11,527.14 c -0.37,-2.34 0.37,-31.75 0.74,-32.25 0.25,-0.12 6.15,-0.37 13.17,-0.25 7.02,0 14.89,-0.37 17.48,-0.98 l 4.92,-1.23 -9.85,9.48 c -5.29,5.17 -13.42,13.29 -17.97,17.85 -4.68,4.55 -8.37,7.88 -8.49,7.38 z"
       id="path251" />
    <path
       d="m 392.62,429.91 c 0,-0.62 2.22,-2.58 4.92,-4.43 2.71,-1.97 4.92,-4.31 4.92,-5.29 0,-2.22 -0.98,-2.22 -3.2,0.12 -1.11,0.98 -1.6,1.85 -1.11,1.85 0.49,0 -0.12,0.86 -1.23,1.97 -3.45,3.45 -3.2,1.11 0.37,-3.08 3.2,-3.82 3.69,-4.06 6.15,-2.46 1.85,1.11 3.08,1.23 3.69,0.49 0.98,-1.35 6.4,-4.55 6.4,-3.82 0,0.37 -4.18,3.94 -9.23,8 -8.62,7.02 -11.69,8.74 -11.69,6.65 z"
       id="path252" />
    <path
       d="m 415.26,413.66 c 0.37,-0.62 1.97,-1.35 3.45,-1.72 2.71,-0.74 2.71,-0.62 0.49,0.98 -2.71,2.09 -4.92,2.46 -3.94,0.74 z"
       id="path253" />
  </g>
  <g
     fill="#0f9381"
     id="g256"
     transform="translate(-260.06349,-325.07937)">
    <path
       d="m 405.91,533.91 c 0.86,-0.86 1.48,-2.58 1.48,-3.94 0,-2.22 0.25,-2.22 3.08,0.49 2.95,2.71 2.95,3.08 0.98,3.82 -1.23,0.49 -3.32,0.98 -4.55,0.98 -1.97,0.12 -2.09,-0.25 -0.98,-1.35 z"
       id="path254" />
    <path
       d="m 415.51,513.35 -15.88,-15.88 7.88,-0.74 c 4.31,-0.37 11.57,-0.98 16.25,-1.23 l 8.25,-0.62 v 17.23 c 0,9.35 -0.12,17.11 -0.37,17.11 -0.12,0 -7.38,-7.14 -16.12,-15.88 z"
       id="path255" />
    <path
       d="m 449.23,496.12 c 0,-1.48 1.48,-1.6 16.62,-1.48 5.42,0.12 11.94,-0.37 14.52,-0.98 3.82,-0.86 4.43,-0.86 3.32,0.49 -0.98,1.11 -5.78,1.6 -16.86,1.72 -8.62,0.12 -16,0.49 -16.62,0.86 -0.49,0.37 -0.98,0 -0.98,-0.62 z"
       id="path256" />
  </g>
  <g
     fill="#1e2344"
     id="g263"
     transform="translate(-260.06349,-325.07937)">
    <path
       d="m 1080.62,534.15 v -61.54 h 10.46 10.46 v 5.54 5.54 l 6.28,-4.8 c 8.25,-6.28 14.65,-8 26.71,-7.26 16.49,0.98 27.82,8.74 35.08,24.12 3.69,7.75 3.94,9.11 3.94,22.4 0,13.29 -0.25,14.65 -3.82,22.28 -4.68,9.97 -11.08,16.37 -20.06,20.68 -5.91,2.71 -8.49,3.2 -18.58,3.2 -12.68,0 -18.95,-2.09 -26.09,-8.98 l -3.45,-3.2 v 21.78 21.78 h -10.46 -10.46 v -61.54 z m 61.17,7.88 c 9.85,-7.75 13.54,-24.37 8.37,-37.17 -6.52,-15.88 -28.43,-20.68 -40.74,-8.74 -6.28,6.03 -8.37,12.68 -7.63,24.49 0.49,8.49 1.11,10.71 4.18,15.14 5.78,8.12 11.57,10.83 22.28,10.46 7.63,-0.37 9.48,-0.86 13.54,-4.18 z"
       id="path257" />
    <path
       d="m 787.69,563.82 c -8.49,-2.58 -17.11,-9.85 -19.57,-16.49 -0.74,-1.97 -1.35,-6.77 -1.35,-10.83 0,-8.74 3.08,-15.51 8.98,-20.06 7.51,-5.66 13.66,-7.14 33.23,-7.88 l 18.09,-0.49 -0.74,-4.55 c -0.98,-5.78 -3.45,-9.48 -8.25,-12.55 -5.78,-3.69 -20.92,-2.83 -30.89,1.72 -3.94,1.85 -7.38,3.32 -7.51,3.32 -0.25,0 -2.22,-2.83 -4.31,-6.4 -4.68,-7.51 -4.68,-7.26 8.62,-13.78 7.63,-3.69 8.62,-3.82 23.38,-3.82 14.03,0 16,0.25 22.28,3.2 7.26,3.45 11.82,8.37 15.51,16.62 1.85,4.06 2.22,9.6 2.58,38.4 l 0.49,33.6 -10.34,-0.37 -10.22,-0.37 -0.62,-5.29 -0.62,-5.42 -3.08,3.32 c -5.29,5.91 -14.28,9.23 -24,9.11 -4.68,0 -9.97,-0.49 -11.69,-0.98 z m 29.91,-18.58 c 5.54,-3.82 8.25,-8.37 9.11,-15.88 0.62,-5.54 0.49,-6.03 -2.09,-6.89 -4.18,-1.35 -27.2,0.62 -31.02,2.58 -1.85,0.98 -3.94,2.95 -4.8,4.31 -1.72,3.32 -1.72,9.85 0,13.05 3.69,7.02 20.31,8.62 28.8,2.83 z"
       id="path258" />
    <path
       d="m 1001.23,563.32 c -14.15,-4.68 -23.26,-12.68 -29.42,-25.48 -3.45,-7.26 -3.82,-9.11 -3.69,-19.69 0,-14.4 2.83,-22.28 10.95,-31.63 13.54,-15.38 39.14,-20.06 59.45,-10.83 9.11,4.18 18.83,14.28 22.4,23.38 2.34,5.91 2.95,9.85 2.95,19.69 0.12,11.57 -0.12,12.92 -3.94,20.55 -4.8,9.72 -11.32,16 -22.28,21.05 -7.02,3.32 -9.72,3.94 -19.82,4.18 -7.26,0.25 -13.54,-0.25 -16.62,-1.23 z m 26.22,-19.2 c 10.09,-5.17 15.02,-13.91 15.02,-26.22 -0.12,-16.98 -10.46,-28.06 -26.34,-28.06 -8.37,0 -12.55,1.48 -17.85,6.52 -5.91,5.66 -8.74,12.43 -8.74,21.54 0,12.55 5.17,21.54 15.38,26.22 6.52,3.08 16.62,2.95 22.52,0 z"
       id="path259" />
    <path
       d="M 674.46,497.23 V 430.77 H 685.29 696 l -0.37,39.51 c -0.25,22.77 0.12,39.38 0.74,39.14 0.62,-0.25 8.74,-8.62 17.97,-18.58 l 16.98,-18.22 h 13.54 13.54 l -7.38,8.25 c -4.06,4.68 -11.69,12.55 -16.74,17.6 -5.17,5.05 -9.35,10.09 -9.35,11.08 0,1.11 8,13.42 17.85,27.45 9.85,14.03 17.85,25.72 17.85,26.09 0,0.37 -5.54,0.62 -12.18,0.62 h -12.18 l -8.49,-11.94 c -4.68,-6.65 -10.95,-15.63 -13.91,-19.94 l -5.29,-7.88 -6.52,6.89 -6.65,6.77 v 13.05 13.05 h -10.46 -10.46 v -66.46 z"
       id="path260" />
    <path
       d="m 867.69,518.15 v -45.54 h 10.46 10.46 v 6.28 6.4 l 5.29,-4.92 c 7.88,-7.26 14.65,-9.48 26.95,-8.74 12.43,0.74 19.08,3.69 24.37,11.08 6.65,9.11 7.38,14.15 7.38,49.23 v 31.75 h -10.34 -10.34 l -0.49,-30.4 c -0.37,-33.85 -0.86,-36.18 -8.74,-41.11 -6.03,-3.82 -18.58,-2.83 -24.74,1.72 -8.37,6.4 -8.74,7.88 -9.11,40.62 l -0.37,29.17 h -10.46 -10.34 v -45.54 z"
       id="path261" />
  </g>
</svg>
