<?xml version="1.0" encoding="UTF-8" standalone="no"?>
<!-- Created with Inkscape (http://www.inkscape.org/) -->

<svg
   width="300"
   height="300"
   viewBox="0 0 79.37504 79.374998"
   version="1.1"
   id="svg1"
   xml:space="preserve"
   inkscape:version="1.4.3 (0d15f75042, 2025-12-25)"
   sodipodi:docname="kanopi.svg"
   xmlns:inkscape="http://www.inkscape.org/namespaces/inkscape"
   xmlns:sodipodi="http://sodipodi.sourceforge.net/DTD/sodipodi-0.dtd"
   xmlns="http://www.w3.org/2000/svg"
   xmlns:svg="http://www.w3.org/2000/svg"><sodipodi:namedview
     id="namedview1"
     pagecolor="#ffffff"
     bordercolor="#000000"
     borderopacity="0.25"
     inkscape:showpageshadow="2"
     inkscape:pageopacity="0.0"
     inkscape:pagecheckerboard="0"
     inkscape:deskcolor="#d1d1d1"
     inkscape:document-units="mm"
     inkscape:zoom="0.75525889"
     inkscape:cx="342.92877"
     inkscape:cy="197.94537"
     inkscape:window-width="1920"
     inkscape:window-height="1028"
     inkscape:window-x="0"
     inkscape:window-y="0"
     inkscape:window-maximized="1"
     inkscape:current-layer="layer1" /><defs
     id="defs1" /><g
     inkscape:label="Layer 1"
     inkscape:groupmode="layer"
     id="layer1"
     transform="translate(-24.107966,-87.4976)"><g
       id="g21"
       transform="matrix(0.02534982,0,0,0.02825267,-30.350339,11.113682)"><g
         id="g32"
         transform="matrix(0.99306569,0,0,0.96269283,-221.30032,166.44668)"><g
           id="l3Djhb9QbuunO4Sl34Np1X0"
           fill="#fca71c"
           transform="translate(304.53138)"><g
             id="g2"><path
               id="p1EtqSCb10"
               d="m 3957,5293 c -16,-18 -17,-43 -15,-279 l 3,-259 h 235 235 l 3,257 2,257 -24,16 c -18,12 -66,17 -222,22 -190,5 -200,5 -217,-14 z" /><path
               id="p1BGjhZg6J"
               d="m 3940,4620 v -60 h 240 240 v 60 60 h -240 -240 z" /></g></g><g
           id="l2Fjv0mzOz2HtBpMr5ne60V"
           fill="#82de5d"
           transform="translate(304.53138)"><g
             id="g3"><path
               id="p9ZZa1ZwI"
               d="m 4758,3695 c -11,-14 -18,-42 -18,-69 0,-44 1,-46 30,-46 43,0 227,41 246,54 10,8 13,20 9,37 -6,23 -13,26 -98,37 -129,17 -149,16 -169,-13 z" /><path
               id="pvF858rxC"
               d="m 2646,3488 c 67,-135 133,-225 237,-325 247,-238 552,-376 1005,-457 29,-5 32,-3 32,18 0,27 -117,156 -141,156 -8,0 -34,30 -58,65 -47,69 -122,145 -143,145 -12,0 -28,14 -90,78 -29,29 -36,32 -94,32 -35,0 -65,4 -69,9 -3,5 -30,13 -61,17 -42,5 -65,15 -97,41 -62,51 -109,101 -155,165 -71,97 -82,104 -206,127 -61,12 -132,21 -159,21 h -47 z" /><path
               id="pcMYrdBK"
               d="m 3453,3443 c -13,-2 -23,-9 -23,-14 0,-5 -9,-9 -21,-9 -18,0 -20,-5 -17,-42 3,-42 5,-44 73,-80 128,-68 267,-103 458,-115 l 97,-5 v 35 c 0,36 -15,47 -66,47 -13,0 -24,8 -27,20 -4,16 -14,20 -51,20 -25,0 -46,-4 -46,-10 0,-5 -13,-10 -30,-10 -25,0 -30,4 -30,24 0,14 -4,36 -10,50 -9,25 -13,26 -90,26 -64,0 -80,3 -80,15 0,8 -6,15 -13,15 -7,0 -18,9 -25,20 -12,20 -43,24 -99,13 z" /></g></g><g
           id="l7RvxaDohZgJ9ZykxKCOoFv"
           fill="#5dd368"
           transform="translate(304.53138)"><g
             id="g4"><path
               id="peEYjy1kU"
               d="m 4810,4070 c 0,-5 -9,-10 -20,-10 -11,0 -20,-4 -20,-10 0,-5 -5,-10 -10,-10 -11,0 -45,-34 -81,-78 -18,-23 -19,-24 -73,-8 -103,30 -164,19 -181,-34 -3,-11 -11,-20 -16,-20 -5,0 -9,-15 -9,-33 0,-28 7,-39 43,-65 53,-39 160,-142 211,-204 22,-28 47,-48 58,-48 10,0 16,4 13,10 -3,5 14,15 38,22 42,11 43,12 25,30 -22,22 -22,27 2,56 18,22 20,22 109,10 50,-7 91,-16 91,-20 0,-4 -7,-4 -17,-1 -10,4 -14,2 -9,-5 3,-6 -3,-13 -15,-17 -38,-13 -12,-16 34,-5 41,11 45,15 49,46 7,56 -10,188 -30,241 -10,28 -36,75 -56,106 -38,56 -38,57 -87,57 -27,0 -49,-4 -49,-10 z" /><path
               id="pbzXTx96f"
               d="m 3655,3618 c -119,-39 -287,-77 -380,-85 l -75,-6 v -33 c 0,-28 8,-39 58,-77 31,-24 80,-59 107,-76 67,-43 26,-31 -100,28 -94,45 -159,92 -182,135 -8,14 -32,21 -103,32 -51,8 -145,27 -208,44 -63,16 -130,30 -148,30 -32,0 -33,-1 -24,-26 10,-26 33,-54 45,-54 3,0 3,5 0,10 -4,6 5,10 19,10 14,0 26,-4 26,-9 0,-4 11,-7 24,-6 22,3 46,-1 131,-21 11,-3 25,-6 30,-7 23,-5 54,-36 100,-97 50,-68 132,-152 187,-193 22,-16 48,-24 77,-25 24,-1 49,-6 55,-12 5,-5 38,-10 71,-10 57,0 64,-3 93,-32 62,-64 78,-78 90,-78 22,0 97,-77 148,-153 60,-90 56,-84 61,-69 4,10 8,10 19,1 8,-6 12,-15 9,-19 -3,-5 4,-15 15,-23 11,-7 17,-17 12,-22 -4,-5 -2,-5 5,-1 7,4 22,-3 35,-16 l 22,-22 -24,-7 c -14,-4 -23,-8 -20,-9 60,-21 354,-41 379,-26 6,4 11,22 11,41 0,33 -2,34 -47,41 -52,7 -89,38 -131,106 -40,64 -127,135 -328,264 -82,53 -140,93 -129,89 165,-59 595,-111 595,-72 0,10 26,16 99,20 144,10 161,15 161,44 0,34 -16,62 -64,108 -46,45 -78,65 -102,65 -19,0 -94,40 -94,51 0,4 -18,10 -40,14 -22,4 -40,12 -40,18 0,14 -46,37 -72,37 -10,0 -18,5 -18,10 0,6 -8,10 -18,10 -9,0 -23,9 -30,20 -7,11 -19,20 -27,20 -9,0 -18,12 -21,29 -7,34 -25,41 -109,40 -38,-1 -93,-12 -150,-31 z m -135,-234 c -9,-9 -5,-12 14,-10 20,3 26,-1 26,-16 0,-11 11,-22 25,-28 14,-5 25,-14 25,-19 0,-15 27,-2 34,16 4,11 2,13 -9,9 -8,-3 -15,-2 -15,3 0,5 23,8 51,7 44,-1 53,-4 60,-23 7,-18 5,-23 -9,-23 -15,0 -15,-2 -2,-10 8,-5 11,-10 7,-10 -4,0 -19,7 -32,16 -24,16 -25,15 -25,-7 0,-12 3,-19 6,-16 4,3 16,1 28,-5 11,-7 24,-13 29,-14 4,-1 8,-2 10,-3 1,-1 21,-3 44,-5 24,-1 47,-6 53,-12 17,-17 -96,1 -190,30 -88,27 -221,93 -227,111 -4,12 36,14 53,2 7,-4 14,0 18,9 3,8 2,12 -4,9 -6,-3 -10,-2 -10,4 0,14 23,20 38,8 9,-7 9,-13 2,-23 z m 468,-169 c 3,-3 -21,-5 -54,-5 -42,0 -55,3 -44,10 15,10 87,6 98,-5 z" /></g></g><g
           id="l4J55nNstPYZF1i0LXSMULz"
           fill="#41da7b"
           transform="translate(304.53138)"><g
             id="g5"><path
               id="pNPDXUrzN"
               d="m 3383,5380 c -12,-5 -25,-19 -28,-32 -3,-13 -4,-151 -3,-308 l 3,-285 238,-3 237,-2 v 273 c 0,271 0,274 -22,294 -19,17 -54,25 -183,42 -88,12 -173,24 -190,26 -16,2 -40,0 -52,-5 z" /><path
               id="ptVF6j2DD"
               d="m 3352,4623 3,-58 238,-3 237,-2 v 60 60 h -240 -241 z" /><path
               id="p1FfI3fJiJ"
               d="m 4720,4195 c 0,-22 4,-25 35,-25 43,0 44,10 6,33 -38,22 -41,22 -41,-8 z" /><path
               id="p1DE3HqpWf"
               d="m 4860,4088 c 0,-34 11,-51 35,-54 6,0 18,-2 28,-2 9,-1 16,-7 15,-13 -2,-6 3,-14 10,-16 21,-8 1,24 -47,77 l -40,45 z" /><path
               id="pRltjkXkb"
               d="m 4977,3955 c 9,-19 18,-33 21,-31 4,5 -26,66 -33,66 -3,0 3,-16 12,-35 z" /><path
               id="p11xBnbdcZ"
               d="m 2594,3604 c 3,-9 6,-20 6,-25 0,-4 6,-6 14,-3 8,3 38,-2 67,-10 67,-20 79,-20 79,2 0,12 -16,22 -60,35 -76,22 -114,23 -106,1 z" /><path
               id="pg1pQ31um"
               d="m 4690,3575 c 0,-31 3,-35 26,-35 22,0 24,3 15,14 -7,8 -8,16 -2,18 5,1 -2,11 -15,21 l -24,18 z" /><path
               id="pNeK3e9KX"
               d="m 4376,3272 c 6,-4 16,-16 22,-28 14,-27 -1,-44 -42,-44 -16,0 -27,-3 -23,-6 3,-3 33,-3 66,1 56,6 61,9 61,32 0,34 -22,53 -62,53 -18,0 -28,-4 -22,-8 z" /><path
               id="pYoqDV0LD"
               d="m 4243,3183 c 15,-2 37,-2 50,0 12,2 0,4 -28,4 -27,0 -38,-2 -22,-4 z" /><path
               id="p1APVYubok"
               d="m 4190,2828 c 0,-13 -9,-36 -20,-53 -14,-22 -16,-32 -8,-43 9,-10 13,-10 19,0 5,8 8,5 6,-10 -1,-15 -8,-22 -22,-23 -17,-1 -16,-2 5,-9 37,-11 48,6 56,88 6,69 6,72 -15,72 -15,0 -21,-6 -21,-22 z" /><path
               id="pMzWRpVRf"
               d="m 4055,2699 -60,-6 h 73 c 39,0 72,1 72,2 0,8 -32,10 -85,4 z" /></g></g><g
           id="ly1hKR6AEF5axLcAI4FVWI"
           fill="#22bfb1"
           transform="translate(304.53138)"><g
             id="g6"><path
               id="psjJF5vRz"
               d="m 2938,4363 c -33,-8 -20,-33 17,-33 28,0 35,4 35,20 0,20 -14,23 -52,13 z" /><path
               id="pVD28p44w"
               d="m 3848,4361 c -31,-3 -60,-10 -64,-14 -5,-4 47,-63 114,-130 67,-67 122,-128 122,-135 0,-6 7,-12 15,-12 10,0 15,10 15,33 0,43 -81,127 -123,127 -23,0 -27,4 -27,29 0,16 -7,34 -15,41 -26,22 -16,30 35,30 43,0 50,3 50,20 0,22 -11,23 -122,11 z" /><path
               id="pu0YU5Log"
               d="m 4150,4351 c 0,-15 11,-19 73,-25 39,-3 115,-15 167,-26 113,-24 140,-25 140,-6 0,17 -92,40 -240,61 -136,19 -140,19 -140,-4 z" /><path
               id="p1B0P6pxYh"
               d="m 2865,4355 c -5,-2 -27,-6 -47,-10 -24,-4 -38,-11 -38,-20 0,-17 15,-18 84,-9 36,5 46,11 46,25 0,18 -18,23 -45,14 z" /><path
               id="prN2eJ3lu"
               d="m 3272,4337 c 4,-19 -1,-32 -18,-48 -13,-13 -24,-28 -24,-36 0,-7 -6,-13 -13,-13 -24,0 -49,-37 -45,-66 3,-28 6,-25 103,68 55,53 97,99 94,102 -3,3 -27,9 -54,13 -48,6 -48,6 -43,-20 z" /><path
               id="p1BCKmmIsa"
               d="m 3470,4275 -23,-25 h 31 c 27,0 32,4 32,25 0,14 -4,25 -8,25 -5,0 -19,-11 -32,-25 z" /><path
               id="p1Cb8s80IC"
               d="m 3640,4272 c 0,-36 16,-52 53,-52 h 28 l -21,30 c -12,17 -30,35 -41,40 -17,9 -19,7 -19,-18 z" /><path
               id="p18LDmVvFU"
               d="m 2563,4275 c -43,-18 -42,-35 2,-35 31,0 35,3 35,25 0,14 -1,25 -2,25 -2,-1 -18,-7 -35,-15 z" /><path
               id="pFTI0mQAt"
               d="m 4600,4255 c 0,-22 4,-25 36,-25 44,0 42,18 -4,37 -31,13 -32,12 -32,-12 z" /><path
               id="p8f1SZwqB"
               d="m 3480,4185 c 0,-37 24,-50 32,-17 6,27 -2,52 -18,52 -9,0 -14,-11 -14,-35 z" /><path
               id="prgT5jEOB"
               d="m 2378,4182 c -37,-22 -35,-32 7,-32 31,0 35,3 35,25 0,29 -6,30 -42,7 z" /><path
               id="pTiS60PT5"
               d="m 3740,4172 c 0,-23 17,-45 84,-111 l 85,-82 53,3 53,3 3,38 c 4,41 -7,48 -26,17 -22,-36 -53,-24 -127,51 -39,39 -82,79 -97,90 l -28,20 z" /><path
               id="p1F7A19Bt8"
               d="m 3480,4035 c 0,-51 2,-55 24,-55 18,0 23,5 21,18 -2,9 -7,34 -10,55 -4,23 -11,37 -20,37 -11,0 -15,-14 -15,-55 z" /><path
               id="p18mS6eTAr"
               d="m 3235,4046 -40,-35 38,-1 c 40,0 51,12 45,50 -3,20 -5,20 -43,-14 z" /><path
               id="pouWHfM1q"
               d="m 2156,4001 c -12,-19 43,-101 123,-184 74,-77 191,-161 277,-198 24,-11 44,-24 44,-29 0,-5 8,-8 18,-8 9,0 67,-13 127,-31 61,-17 153,-37 205,-45 52,-8 96,-19 98,-25 2,-7 40,-11 104,-11 83,0 99,2 89,14 -9,11 3,14 64,19 156,14 467,99 473,130 3,13 -4,17 -32,17 -20,0 -36,-4 -36,-9 0,-5 -15,-11 -32,-13 -18,-3 -85,-19 -148,-35 -151,-40 -230,-51 -230,-30 0,21 -60,83 -90,92 -24,8 -120,101 -120,117 0,4 -4,8 -10,8 -5,0 -20,9 -32,20 -45,41 -53,47 -75,59 -12,6 -32,11 -45,11 -25,0 -86,33 -105,57 -14,17 -124,37 -328,57 -261,26 -331,30 -339,17 z" /><path
               id="p8tLF5Sr3"
               d="m 4680,3570 c 0,-16 13,-51 29,-77 35,-59 66,-152 55,-163 -11,-11 -187,-67 -236,-76 -28,-4 -38,-11 -38,-25 0,-11 4,-19 9,-19 22,0 151,33 238,61 91,29 93,31 87,57 -12,49 -51,148 -84,210 -35,67 -60,81 -60,32 z" /><path
               id="pssuxvvZk"
               d="m 4160,3105 c 0,-28 4,-35 20,-35 21,0 24,10 14,48 -10,36 -34,27 -34,-13 z" /><path
               id="pHze2LK8X"
               d="m 4180,3025 c 0,-28 4,-35 20,-35 21,0 24,10 14,48 -10,36 -34,27 -34,-13 z" /></g></g><g
           id="l3vjySJ3P0XCUQgN8m4M8kb"
           fill="#3fc882"
           transform="translate(304.53138)"><g
             id="g7"><path
               id="pAcNmuyRu"
               d="m 3357,5353 c -4,-3 -6,-79 -5,-167 l 2,-161 5,165 c 7,183 7,173 -2,163 z" /><path
               id="pfNTnGlF7"
               d="m 3353,4910 c 0,-36 2,-50 4,-32 2,17 2,47 0,65 -2,17 -4,3 -4,-33 z" /><path
               id="pd8WMK3Dw"
               d="m 3352,4623 3,-58 200,-1 c 145,-1 186,1 150,7 -27,5 -115,8 -195,7 l -145,-3 3,53 c 3,34 0,52 -8,52 -7,0 -10,-19 -8,-57 z" /><path
               id="pAdLmdnEQ"
               d="m 3458,4673 c 29,-2 74,-2 100,0 26,2 2,3 -53,3 -55,0 -76,-1 -47,-3 z" /><path
               id="psMfyZxFh"
               d="m 3688,4673 c 12,-2 32,-2 45,0 12,2 2,4 -23,4 -25,0 -35,-2 -22,-4 z" /><path
               id="p1CkvwxjV5"
               d="m 3819,4673 c -1,-5 0,-25 1,-47 1,-21 -4,-42 -10,-46 -8,-5 -7,-9 4,-13 14,-5 16,3 16,53 0,33 -2,60 -5,60 -3,0 -5,-3 -6,-7 z" /><path
               id="pNgqwgIgB"
               d="m 4520,4286 c 0,-25 21,-36 73,-36 42,0 28,22 -26,42 l -47,18 z" /><path
               id="pUWjV9yWT"
               d="m 4660,4227 c 0,-17 12,-30 43,-47 23,-13 72,-52 108,-87 60,-58 90,-79 73,-52 -4,7 1,7 16,-1 35,-19 33,-6 -8,46 -44,56 -83,88 -163,133 -67,37 -69,37 -69,8 z" /><path
               id="pVsAV8zPV"
               d="m 4007,4061 c -22,-38 -22,-41 8,-41 22,0 25,4 25,35 0,43 -10,44 -33,6 z" /><path
               id="puoBocWVv"
               d="m 4370,3865 c 0,-33 2,-35 34,-35 32,0 34,2 34,35 0,33 -2,35 -34,35 -32,0 -34,-2 -34,-35 z" /><path
               id="pm7bRGevF"
               d="m 4460,3806 c 0,-35 1,-36 36,-36 42,0 41,13 -4,48 l -32,25 z" /><path
               id="pWLGm7yNB"
               d="m 4630,3647 c 0,-25 5,-40 15,-43 8,-4 15,-12 15,-20 0,-9 11,-14 30,-14 17,0 30,3 30,8 0,4 -20,30 -45,57 l -44,50 z" /><path
               id="pvMiqS3wq"
               d="m 3740,3649 c -63,-26 -275,-82 -372,-98 -64,-11 -114,-25 -123,-35 -9,-9 -25,-16 -36,-16 -12,0 -19,-7 -19,-20 0,-16 7,-20 37,-20 35,0 36,0 18,20 -18,20 -17,20 36,20 40,0 50,3 39,11 -11,7 -1,8 34,3 35,-5 47,-4 42,5 -5,7 2,9 24,5 18,-4 30,-2 30,4 0,5 8,8 19,5 10,-3 22,0 25,5 3,6 15,8 26,5 11,-3 20,-1 20,5 0,6 10,8 22,4 15,-4 19,-2 13,7 -5,10 -2,11 14,6 11,-3 21,-2 21,3 0,6 9,8 20,5 11,-3 20,0 20,6 0,5 7,8 15,5 8,-4 15,-2 15,2 0,5 12,10 26,11 15,0 29,5 33,10 8,11 67,16 106,9 21,-4 35,-14 38,-26 3,-12 14,-20 26,-20 30,0 73,-21 97,-47 12,-13 41,-32 65,-43 24,-12 71,-38 104,-60 33,-21 76,-47 95,-56 40,-20 142,-118 133,-128 -4,-3 1,-6 10,-6 20,0 23,-16 5,-24 -19,-9 79,2 123,14 32,9 39,15 39,36 0,63 -78,161 -181,230 -93,62 -180,94 -370,138 -156,36 -242,43 -289,25 z" /><path
               id="pu7B51vTi"
               d="m 2600,3594 c 0,-7 8,-12 18,-12 9,0 64,-13 122,-30 119,-34 247,-57 276,-49 12,3 6,5 -14,6 -55,2 -222,39 -315,69 -63,21 -87,25 -87,16 z" /><path
               id="ptQz6LgQi"
               d="m 3040,3506 c 0,-4 5,-16 10,-27 8,-14 21,-19 55,-19 38,0 45,3 45,20 0,16 -7,20 -32,20 -18,0 -43,3 -55,6 -13,4 -23,3 -23,0 z" /><path
               id="pys49Tcis"
               d="m 4130,3168 c 0,-7 6,-33 14,-58 7,-25 11,-62 8,-82 -4,-40 14,-135 31,-156 5,-7 7,-36 3,-71 -6,-48 -4,-60 9,-65 9,-3 13,-2 10,4 -3,6 -2,10 3,10 12,0 14,18 15,135 2,75 -4,125 -22,198 -21,89 -25,97 -47,97 -13,0 -24,-6 -24,-12 z" /><path
               id="pmksqo5el"
               d="m 4200,2711 c 0,-5 -8,-12 -17,-14 -14,-4 -12,-5 5,-6 13,-1 22,5 22,14 0,8 -2,15 -5,15 -3,0 -5,-4 -5,-9 z" /></g></g><g
           id="l1SMM2uElHieabo1ivqgiHZ"
           fill="#17b7b9"
           transform="translate(304.53138)"><g
             id="g8"><path
               id="p13li6Fjok"
               d="m 2870,4354 c -212,-32 -424,-117 -576,-233 -86,-64 -151,-127 -142,-136 3,-4 37,-8 74,-10 38,-2 97,-7 132,-11 57,-6 62,-5 62,14 0,17 -9,20 -90,26 l -90,7 18,24 c 9,14 20,25 24,25 5,0 34,19 67,43 77,57 196,118 304,156 100,35 284,71 364,71 46,0 53,3 53,20 0,18 -6,20 -52,19 -29,-1 -96,-7 -148,-15 z" /><path
               id="p12Xo4Es5W"
               d="m 3120,4351 c 0,-18 6,-21 44,-21 23,0 71,-3 105,-6 51,-6 61,-4 61,8 0,20 -26,27 -127,35 -80,6 -83,5 -83,-16 z" /><path
               id="pnTbhLj3Z"
               d="m 3445,4247 -60,-56 36,-1 c 47,0 92,44 87,86 l -3,28 z" /><path
               id="p6qNzAttF"
               d="m 3107,4143 c -16,-16 -7,-101 14,-127 19,-24 27,-27 78,-24 56,3 56,3 59,37 l 3,33 -32,-22 c -35,-26 -49,-22 -82,22 -19,26 -19,26 2,57 l 22,31 h -29 c -16,0 -32,-3 -35,-7 z" /><path
               id="p10pDtjtU"
               d="m 3480,4005 c 0,-28 4,-35 20,-35 13,0 20,-7 20,-20 0,-18 7,-20 55,-20 30,0 55,4 55,9 0,5 9,11 20,14 15,4 20,14 20,41 0,39 -24,51 -33,17 -2,-10 -17,-27 -31,-36 -35,-23 -73,-8 -89,35 -16,42 -37,39 -37,-5 z" /><path
               id="p19mVrwFu1"
               d="m 2430,3977 c 0,-18 4,-19 195,-42 72,-9 131,-20 133,-25 2,-5 9,-7 17,-4 7,3 16,-3 20,-15 3,-12 10,-19 15,-16 5,3 13,-3 19,-12 6,-10 11,-14 11,-10 0,4 8,3 18,-2 9,-5 31,-11 48,-14 43,-7 74,-25 74,-43 0,-8 5,-12 10,-9 6,3 10,1 10,-5 0,-6 5,-8 10,-5 6,3 13,-1 16,-9 3,-9 13,-16 22,-16 8,0 13,-2 10,-6 -3,-3 18,-28 47,-57 68,-66 82,-78 93,-75 11,3 72,-60 72,-74 0,-5 -4,-6 -10,-3 -5,3 -10,0 -10,-9 0,-8 -6,-17 -12,-19 -7,-3 10,-5 39,-4 29,1 47,5 40,9 -7,5 9,6 35,4 26,-2 45,0 42,5 -2,4 9,6 26,4 16,-2 30,0 30,4 0,4 8,7 18,8 9,0 28,4 42,8 14,4 35,7 47,8 12,1 19,5 16,11 -4,5 1,7 10,3 9,-3 19,-2 22,3 3,5 14,7 25,5 11,-2 20,0 20,6 0,5 3,8 8,8 4,-1 9,0 12,1 3,1 13,3 23,5 10,2 26,7 35,11 26,11 45,15 75,15 22,0 27,5 27,25 0,34 -27,32 -166,-12 -63,-20 -121,-33 -129,-30 -8,3 -15,17 -15,31 0,13 -12,38 -27,54 -46,49 -146,132 -170,142 -13,5 -23,13 -23,18 0,30 -490,116 -772,137 -86,6 -98,5 -98,-9 z" /><path
               id="pGpXoQcQV"
               d="m 4720,3498 c 0,-43 12,-61 39,-56 l 21,3 -21,43 c -25,50 -39,54 -39,10 z" /></g></g><g
           id="lQxBURg9dLL9EekxA7J8qU"
           fill="#1187e7"
           transform="translate(304.53138)"><g
             id="g9"><path
               id="p8aztuaGx"
               d="m 2779,5511 -24,-19 v -369 -368 l 243,-3 242,-2 v 325 325 l -22,14 c -20,12 -295,91 -384,110 -23,5 -37,2 -55,-13 z" /><path
               id="pjLBlVGZG"
               d="m 2760,4620 v -60 h 240 240 v 60 60 h -240 -240 z" /></g></g><g
           id="l3vKU7otKbT88aCBGWZ4TyD"
           fill="#0ea9c6"
           transform="translate(304.53138)"><g
             id="g10"><path
               id="p19zt8vssA"
               d="m 2754,5195 c 0,-121 2,-169 3,-107 2,62 2,161 0,220 -1,59 -3,8 -3,-113 z" /><path
               id="pf4oOFq2w"
               d="m 2754,4820 1,-65 h 245 l 245,-1 -242,3 -242,3 -4,63 -3,62 z" /><path
               id="pQTQglAzm"
               d="m 2878,4563 c 67,-2 177,-2 245,0 67,1 12,3 -123,3 -135,0 -190,-2 -122,-3 z" /><path
               id="pDsfNusAq"
               d="m 3480,3997 c 0,-21 8,-41 19,-51 25,-22 88,-31 124,-17 22,9 27,17 27,45 v 35 l -26,-24 c -15,-14 -37,-25 -49,-25 -23,0 -65,38 -65,58 0,7 -7,12 -15,12 -10,0 -15,-10 -15,-33 z" /><path
               id="p1GjBj8go3"
               d="m 2890,3925 c 0,-8 2,-15 3,-15 10,0 305,-61 338,-70 21,-6 39,-15 39,-21 0,-5 10,-13 23,-18 23,-9 186,-148 188,-159 7,-59 19,-80 49,-84 17,-3 30,0 30,5 0,5 9,7 20,4 11,-3 20,-1 20,5 0,6 7,8 15,4 8,-3 15,0 15,5 0,6 9,9 20,6 11,-3 20,-1 20,5 0,6 7,8 15,4 8,-3 15,-1 15,4 0,5 7,7 15,4 8,-4 15,-1 15,6 0,7 7,10 15,6 8,-3 15,-1 15,5 0,6 5,7 11,3 6,-3 15,0 20,7 6,10 9,11 9,2 0,-7 5,-13 10,-13 6,0 10,13 10,28 0,26 -8,32 -97,75 -183,87 -348,138 -599,187 -179,34 -234,38 -234,15 z" /><path
               id="p15hmSP6W4"
               d="m 5957.2265,3840.9179 c -0.3286,16.0008 -0.7456,32.0504 -1.2304,48.0078 8.6742,-8.8714 14.0039,-19.7147 14.0039,-30.9179 0,-10.8665 -4.9882,-16.3641 -12.7735,-17.0899 z" /></g></g><g
           id="l6FRDUe7TiaMv3Bu2stPXMs"
           fill="#2ec08d"
           transform="translate(304.53138)"><g
             id="g11"><path
               id="phxtWcCT9"
               d="m 3928,4363 c -10,-2 -18,-11 -18,-19 0,-11 15,-14 65,-14 58,0 65,2 65,20 0,17 -6,20 -47,19 -27,-1 -56,-3 -65,-6 z" /><path
               id="puOd9qfio"
               d="m 4050,4352 c 0,-17 12,-20 103,-25 183,-11 359,-53 479,-113 45,-23 108,-32 108,-16 0,25 -170,99 -290,126 -84,20 -287,46 -351,46 -41,0 -49,-3 -49,-18 z" /><path
               id="pxGD7wM7q"
               d="m 3828,4353 c -10,-2 -18,-11 -18,-19 0,-10 13,-14 45,-14 38,0 45,3 45,20 0,15 -6,20 -27,19 -16,-1 -36,-3 -45,-6 z" /><path
               id="pEIXcMLO8"
               d="m 3870,4251 c 0,-5 17,-24 38,-41 l 37,-31 3,26 c 2,15 -2,33 -9,41 -13,15 -69,20 -69,5 z" /><path
               id="pTmEjkCQx"
               d="m 4750,4171 c 0,-29 3,-31 36,-31 39,0 38,9 -6,40 l -30,21 z" /><path
               id="p1FO0niwOK"
               d="m 4010,4115 c 16,-19 6,-55 -24,-88 l -25,-27 h 33 c 42,0 66,33 66,90 0,38 -1,40 -31,40 -27,0 -30,-2 -19,-15 z" /><path
               id="pCmxbEvEx"
               d="m 4150,3967 c 0,-32 3,-34 69,-60 38,-15 74,-27 80,-27 6,0 11,-3 11,-8 0,-4 21,-19 47,-32 26,-14 56,-33 67,-42 11,-10 25,-18 32,-18 6,0 14,-7 18,-15 3,-8 17,-15 31,-15 17,0 25,-5 25,-18 0,-20 89,-112 108,-112 7,0 12,-9 12,-20 0,-11 4,-20 9,-20 5,0 11,-9 14,-20 4,-14 14,-20 33,-20 21,0 25,3 17,11 -6,6 -9,18 -6,25 3,8 -2,17 -11,20 -9,3 -16,10 -16,14 0,21 -145,169 -218,223 -24,17 -39,33 -33,35 6,2 11,7 11,11 0,10 -75,51 -94,51 -9,0 -16,4 -16,9 0,13 -125,61 -160,61 -27,0 -30,-3 -30,-33 z" /><path
               id="p14bumlK9u"
               d="m 4455,3860 c 3,-5 16,-10 28,-10 18,0 19,2 7,10 -20,13 -43,13 -35,0 z" /><path
               id="ptsgmZPct"
               d="m 3783,3664 c -8,-4 -5,-12 8,-25 14,-14 27,-17 46,-13 19,5 24,4 18,-6 -5,-9 0,-11 21,-8 16,3 23,3 17,1 -32,-11 -9,-31 48,-42 34,-7 67,-15 75,-18 8,-3 14,0 14,6 0,7 -14,17 -31,23 -16,6 -28,12 -26,15 7,7 205,-46 269,-72 124,-51 243,-148 289,-237 23,-46 24,-55 2,-62 -10,-3 0,-3 22,0 51,7 265,75 265,85 0,69 -172,152 -530,255 -159,46 -425,104 -470,103 -14,0 -30,-3 -37,-5 z" /><path
               id="pFpPbgDlr"
               d="m 3020,3499 c 13,-6 27,-15 31,-20 8,-14 117,-23 165,-14 37,6 38,7 19,22 -15,11 -37,14 -92,9 -45,-4 -73,-2 -73,4 0,6 -17,10 -37,9 -35,0 -36,-1 -13,-10 z" /><path
               id="pGTsJBED3"
               d="m 3243,3503 c 9,-2 25,-2 35,0 9,3 1,5 -18,5 -19,0 -27,-2 -17,-5 z" /><path
               id="pmAwx7PN6"
               d="m 4160,3103 c 0,-64 30,-101 43,-53 3,13 1,18 -6,13 -6,-4 -8,2 -5,15 4,12 2,22 -3,22 -5,0 -9,7 -9,15 0,8 -4,15 -10,15 -5,0 -10,-12 -10,-27 z" /></g></g><g
           id="l3YtjWbZJrMyRjp9OF2CYFQ"
           fill="#40cb6f"
           transform="translate(304.53138)"><g
             id="g12"><path
               id="p14rqcmQba"
               d="m 3453,4763 c 15,-2 39,-2 55,0 15,2 2,4 -28,4 -30,0 -43,-2 -27,-4 z" /><path
               id="pk7srtFdD"
               d="m 3362,4640 c 0,-19 2,-27 5,-17 2,9 2,25 0,35 -3,9 -5,1 -5,-18 z" /><path
               id="p1DzlXpJdd"
               d="m 3498,4573 c 18,-2 45,-2 60,0 15,2 0,4 -33,4 -33,0 -45,-2 -27,-4 z" /><path
               id="pNKGFRcpg"
               d="m 3613,4573 c 15,-2 37,-2 50,0 12,2 0,4 -28,4 -27,0 -38,-2 -22,-4 z" /><path
               id="pHHErpzPh"
               d="m 4631,4187 c -20,-6 -41,-23 -50,-39 -9,-15 -24,-28 -33,-28 -10,0 -18,-4 -18,-10 0,-5 -8,-10 -19,-10 -13,0 -20,-9 -24,-30 -4,-16 -12,-30 -18,-30 -7,0 -17,-7 -24,-17 -10,-13 -27,-16 -81,-14 -38,1 -75,-3 -82,-7 -9,-6 -12,-25 -10,-57 l 3,-48 76,-46 c 42,-25 92,-58 112,-73 20,-16 47,-28 61,-28 20,0 26,-5 26,-22 0,-29 41,-68 70,-68 17,0 20,3 12,13 -6,6 -11,17 -11,22 -1,6 -7,10 -13,10 -7,0 -13,7 -13,15 0,8 -5,15 -10,15 -6,0 -28,19 -49,43 -21,23 -46,41 -55,40 -8,-2 -16,2 -16,9 0,7 -9,19 -20,27 -11,9 -15,16 -9,16 5,0 15,-5 21,-11 13,-13 63,-4 63,11 0,6 -4,10 -10,10 -5,0 -10,-4 -10,-10 0,-5 -5,-10 -11,-10 -6,0 -9,9 -6,20 4,14 0,20 -11,21 -11,0 -12,2 -4,6 6,2 10,9 7,14 -14,22 50,18 144,-9 55,-16 101,-27 101,-25 0,2 -4,12 -9,22 -7,13 -3,25 20,49 17,18 35,32 40,32 6,0 7,5 4,10 -3,6 1,10 9,10 9,0 16,5 16,11 0,5 6,7 12,3 17,-11 48,-12 42,-2 -3,4 4,8 16,8 13,0 19,4 14,11 -4,7 1,7 16,-1 45,-24 28,-1 -55,79 -84,78 -88,81 -133,80 -26,-1 -62,-6 -81,-12 z" /><path
               id="pjgqNNxed"
               d="m 3790,3640 c 20,-20 46,-28 36,-11 -5,8 83,-6 189,-29 22,-5 41,-7 44,-5 12,13 -188,64 -251,65 h -38 z" /><path
               id="phezNHnfV"
               d="m 4650,3620 c 0,-16 4,-30 9,-30 5,0 11,-9 14,-20 7,-28 44,-27 42,1 -1,12 -9,25 -18,31 -10,5 -15,13 -13,17 3,4 -4,12 -15,19 -17,11 -19,9 -19,-18 z" /><path
               id="p1GEveswvc"
               d="m 3863,3613 c 12,-3 17,-11 14,-22 -4,-17 14,-41 32,-41 6,0 16,-9 23,-20 7,-11 21,-20 30,-20 10,0 18,-4 18,-10 0,-5 11,-10 24,-10 13,0 29,-7 36,-15 7,-8 16,-12 21,-9 5,3 9,-2 9,-10 0,-9 8,-16 19,-16 11,0 23,-5 26,-11 4,-6 13,-8 21,-5 8,3 14,2 14,-2 0,-11 74,-52 94,-52 9,0 26,-6 39,-12 32,-19 127,-115 120,-122 -4,-3 1,-6 11,-6 16,0 16,2 -3,28 -11,15 -52,59 -93,99 -72,71 -132,113 -217,153 -24,11 -53,31 -65,44 -11,12 -30,26 -41,31 -28,10 -128,34 -140,33 -5,0 -2,-2 8,-5 z" /><path
               id="pFBB6rwn1"
               d="m 3049,3476 c 58,-75 155,-135 308,-189 104,-38 190,-83 343,-181 198,-128 277,-194 319,-268 15,-26 30,-46 33,-43 3,3 13,-6 22,-20 9,-14 26,-25 37,-25 11,0 17,-4 14,-10 -3,-5 -1,-10 4,-10 6,0 11,5 11,12 0,6 9,3 20,-7 13,-12 20,-14 20,-5 0,6 6,10 13,7 16,-6 17,-4 23,86 3,39 1,73 -4,80 -6,7 -14,30 -18,52 -11,55 -11,59 -1,66 6,4 6,22 1,45 -7,30 -17,43 -44,56 -29,15 -31,18 -12,18 14,0 22,6 22,18 0,16 -17,19 -143,30 -156,14 -315,46 -419,86 -66,24 -68,25 -68,5 0,-18 -4,-17 -60,13 -33,18 -53,34 -45,36 25,6 17,15 -58,64 -40,26 -92,62 -116,80 -30,22 -45,29 -48,20 -3,-6 -9,-10 -14,-7 -5,3 -42,7 -82,9 -73,3 -74,3 -58,-18 z" /><path
               id="pjVjEpW3t"
               d="m 4200,2711 c 0,-9 -14,-11 -45,-8 -24,2 -42,0 -39,-5 8,-12 82,-10 89,3 4,6 4,13 1,16 -3,4 -6,1 -6,-6 z" /></g></g><g
           id="l3PJuOFj0Qst9ngvnudgUdj"
           fill="#19a895"
           transform="translate(304.53138)"><g
             id="g13"><path
               id="p6wmqqNXC"
               d="m 3240,4342 c 0,-15 10,-21 46,-26 30,-4 52,-2 61,6 20,16 6,25 -54,32 -48,6 -53,5 -53,-12 z" /><path
               id="p1GJJNAmds"
               d="m 3795,4330 c 10,-11 22,-20 27,-20 4,0 8,9 8,20 0,15 -7,20 -27,20 -25,0 -26,0 -8,-20 z" /><path
               id="p12jSE2GP0"
               d="m 3640,4140 c 0,-143 1,-150 20,-150 19,0 20,7 20,102 v 102 l 33,-32 c 24,-23 42,-32 67,-32 h 35 l -80,80 c -44,44 -83,80 -87,80 -5,0 -8,-67 -8,-150 z" /><path
               id="pT6b5nDGT"
               d="m 3863,4260 c 8,-12 25,-29 37,-37 21,-15 21,-14 18,18 -3,30 -7,34 -37,37 -32,3 -33,3 -18,-18 z" /><path
               id="pTfZOoNqm"
               d="m 3994,4029 c -21,-23 -42,-24 -72,-3 -21,15 -22,14 -22,-14 0,-33 14,-42 63,-42 18,0 50,-7 72,-14 l 40,-14 -40,-10 c -22,-6 -75,-13 -117,-16 -69,-6 -78,-5 -96,14 -14,16 -29,21 -53,18 -45,-4 -48,-30 -14,-154 15,-53 24,-107 21,-119 -7,-25 9,-36 59,-42 118,-12 478,-105 670,-173 110,-39 288,-129 307,-155 34,-46 -37,152 -86,239 -38,68 -174,225 -205,237 -9,4 -28,18 -43,32 -15,14 -29,22 -32,19 -3,-3 -6,0 -6,6 0,7 -7,12 -15,12 -8,0 -24,9 -34,19 -11,11 -22,17 -25,13 -3,-3 -6,1 -6,8 0,7 -3,11 -6,7 -4,-3 -13,1 -21,9 -8,8 -18,12 -23,9 -5,-3 -7,5 -5,18 4,21 -2,26 -58,45 -34,12 -101,33 -149,46 -85,23 -87,23 -104,5 z" /></g></g><g
           id="l7MtJE0ihDWZepYfncRyLcg"
           fill="#0b92b5"
           transform="translate(304.53138)"><g
             id="g14"><path
               id="p1Cer8TEJW"
               d="m 2758,4037 c -16,-6 -28,-14 -28,-19 0,-4 -5,-8 -11,-8 -16,0 -38,-31 -39,-52 0,-21 10,-23 150,-38 332,-37 662,-126 890,-240 44,-22 84,-40 90,-40 16,0 12,41 -16,146 -14,55 -26,112 -26,128 2,85 -106,173 -124,102 -13,-54 -75,-76 -114,-41 -11,10 -20,28 -20,40 0,19 -7,23 -46,29 -91,12 -221,7 -234,-9 -16,-20 -54,-19 -71,1 -11,13 -23,15 -64,8 -55,-9 -207,-9 -270,-1 -22,3 -52,1 -67,-6 z" /></g></g><g
           id="l53FOR9624FPRwUInw5xOV5"
           fill="#28be6c"
           transform="translate(304.53138)"><g
             id="g15"><path
               id="p35jq3KYQ"
               d="m 4578,4259 c -10,-5 -18,-16 -18,-23 0,-9 -29,-15 -107,-19 -151,-10 -384,-45 -411,-63 -19,-13 -23,-22 -18,-47 3,-20 0,-39 -9,-51 -37,-48 -19,-63 142,-121 96,-34 147,-45 128,-26 -11,10 -138,55 -204,71 -23,6 -41,13 -39,15 2,2 28,-2 58,-10 30,-8 68,-17 84,-20 16,-3 38,-11 50,-17 11,-7 27,-13 34,-14 7,-1 24,-9 37,-18 32,-21 46,-21 17,0 -21,15 -22,17 -8,33 9,10 13,21 9,25 -5,5 24,5 63,1 67,-6 73,-5 88,16 9,13 16,18 16,11 0,-10 3,-10 14,0 8,7 14,15 14,18 -2,37 4,50 22,50 11,0 20,5 20,10 0,6 8,10 18,10 11,0 24,11 30,25 7,14 24,30 39,36 43,17 119,18 150,3 l 28,-14 -30,26 c -29,24 -177,104 -192,104 -5,0 -16,-5 -25,-11 z" /><path
               id="pkvOTDzFw"
               d="m 4400,3839 c 0,-9 62,-41 67,-35 3,2 -5,9 -16,16 -12,6 -20,14 -17,18 2,4 -4,8 -15,8 -10,0 -19,-3 -19,-7 z" /><path
               id="pa94A8zA2"
               d="m 3151,3490 c -24,-5 -22,-8 30,-53 125,-108 358,-238 466,-260 34,-7 70,-20 80,-30 11,-9 22,-17 26,-17 3,0 17,-11 31,-25 27,-27 67,-26 44,2 -9,11 -9,16 3,24 8,5 10,9 5,9 -14,0 15,30 30,30 8,0 14,-7 14,-15 0,-8 3,-15 8,-16 7,0 26,-3 82,-13 14,-2 33,-1 43,3 18,7 18,8 1,21 -11,9 -15,10 -10,3 4,-9 1,-13 -10,-13 -13,0 -14,3 -4,15 15,18 40,20 40,3 0,-10 3,-9 9,1 6,9 11,10 15,2 4,-6 0,-18 -8,-27 -20,-19 -20,-28 -1,-21 8,4 17,2 20,-4 4,-5 11,-7 16,-4 5,4 9,1 9,-5 0,-6 4,-9 9,-5 13,7 62,-16 55,-26 -3,-5 -1,-9 4,-9 5,0 12,-9 15,-20 6,-25 27,-27 26,-2 0,9 -8,44 -17,77 l -17,60 -70,2 c -109,4 -236,22 -363,54 -142,34 -318,118 -437,208 -79,58 -93,63 -144,51 z m 653,-366 c 9,-8 16,-20 16,-27 0,-6 -9,-1 -20,11 -30,32 -26,46 4,16 z" /></g></g><g
           id="l3XxGiKEcreM6kKjAwmpie5"
           fill="#0e979b"
           transform="translate(304.53138)"><g
             id="g16"><path
               id="pdGEbCQID"
               d="m 3028,4363 c -10,-2 -18,-11 -18,-19 0,-11 18,-14 85,-14 66,0 85,3 85,14 0,7 -10,16 -22,20 -26,6 -104,6 -130,-1 z" /><path
               id="p10wswYmF7"
               d="m 2815,4340 c -171,-32 -329,-95 -468,-188 -72,-47 -187,-148 -187,-163 0,-5 19,-9 43,-9 23,0 134,-9 247,-20 271,-26 347,-31 295,-21 -31,6 -36,9 -23,15 10,5 15,12 12,17 -3,5 4,9 16,9 12,0 18,5 15,10 -5,9 15,15 38,11 4,0 7,4 7,9 0,7 7,7 21,-1 15,-7 61,-9 148,-5 148,8 223,11 309,14 55,2 62,4 62,22 0,11 -5,20 -12,20 -7,0 16,29 51,64 52,53 62,68 59,92 -3,28 -6,26 -119,-84 -73,-70 -123,-112 -137,-112 -23,0 -62,43 -62,69 0,8 37,53 82,98 l 83,83 h -36 c -32,0 -45,-9 -106,-74 l -70,-73 -84,-7 c -46,-4 -123,-9 -171,-12 -49,-4 -88,-10 -88,-15 0,-5 -6,-9 -13,-9 -18,0 -67,24 -67,33 0,4 -16,7 -35,7 -19,0 -35,-4 -35,-10 0,-5 -22,-10 -50,-10 -27,0 -50,-4 -50,-10 0,-5 -9,-10 -19,-10 -11,0 -21,-5 -23,-11 -6,-17 -55,-14 -73,5 -19,18 -12,56 11,56 8,0 14,7 14,15 0,8 9,15 20,15 23,0 70,20 70,30 0,4 13,10 29,13 16,3 36,13 44,22 9,8 21,15 28,15 6,0 53,13 104,30 51,16 131,35 179,42 71,10 86,15 86,30 0,22 -13,22 -145,-2 z" /><path
               id="pf5PH73Rf"
               d="m 3220,4340 c 0,-17 7,-20 40,-20 45,0 57,23 18,34 -42,11 -58,7 -58,-14 z" /><path
               id="pnkuLAoGP"
               d="m 3390,4035 c 0,-13 14,-17 98,-29 17,-3 22,2 22,20 0,23 -4,24 -60,24 -46,0 -60,-3 -60,-15 z" /><path
               id="pVtrK15h"
               d="m 3650,4041 c 0,-5 -3,-17 -6,-25 -5,-12 -2,-15 10,-10 26,10 63,-42 105,-150 45,-114 50,-117 22,-16 -11,38 -16,72 -13,74 4,2 17,-6 30,-18 13,-15 31,-22 47,-21 14,2 60,6 103,10 42,3 84,8 92,10 42,12 80,14 80,5 0,-6 9,-6 24,0 13,5 26,7 28,5 9,-10 82,-13 101,-5 l 22,9 -22,7 c -13,3 -20,11 -16,17 3,5 2,7 -4,4 -14,-9 -83,14 -76,26 3,6 1,7 -5,3 -12,-7 -119,17 -130,30 -4,3 2,4 13,1 67,-20 76,-17 27,7 -55,26 -92,33 -92,17 0,-21 -42,-18 -69,5 -27,22 -37,24 -150,24 -67,0 -121,-4 -121,-9 z" /><path
               id="pNSd5UR0e"
               d="m 4389,3847 c 12,-16 67,-47 80,-47 9,1 -30,29 -64,47 -28,15 -29,15 -16,0 z" /></g></g><g
           id="l1k77Np5V3DotaXpWtQFMs6"
           fill="#0c8e90"
           transform="translate(304.53138)"><g
             id="g17"><path
               id="pSxs6HLDk"
               d="m 2834,4341 c -209,-37 -408,-123 -552,-239 -23,-19 -40,-37 -37,-40 3,-3 15,4 28,15 43,39 70,36 48,-5 -6,-11 -4,-21 5,-30 11,-10 14,-10 14,0 0,9 3,10 8,2 13,-21 65,-31 99,-21 18,6 33,14 33,19 0,4 7,8 15,8 8,0 15,-4 15,-10 0,-5 7,-10 15,-10 8,0 15,5 15,11 0,6 9,9 20,6 14,-4 20,0 20,11 0,10 3,13 8,7 4,-5 23,-11 42,-13 26,-2 31,0 20,7 -9,7 -10,11 -3,11 6,0 15,-4 18,-10 3,-5 31,-10 61,-10 34,0 53,4 49,10 -3,6 -1,10 4,10 6,0 11,-3 11,-7 0,-5 11,-9 25,-9 14,-1 25,1 25,5 0,6 11,8 93,12 26,1 47,7 47,11 0,5 6,6 12,2 16,-10 48,-13 48,-4 0,14 46,7 73,-12 l 29,-21 -12,22 c -16,31 -3,49 115,156 56,52 95,95 93,104 -4,22 -70,29 -253,29 -99,0 -184,-6 -251,-17 z" /><path
               id="pFcgfTbpL"
               d="m 3240,4041 c -33,-29 -33,-30 -8,-21 15,5 79,6 152,2 l 126,-7 v 22 c 0,22 -4,23 -67,23 -38,0 -90,3 -118,6 -46,5 -53,3 -85,-25 z" /><path
               id="p15TFhAJXg"
               d="m 3650,4029 c 0,-15 4,-19 16,-15 9,3 20,6 25,6 5,0 9,7 9,15 0,9 -9,15 -25,15 -19,0 -25,-5 -25,-21 z" /></g></g><g
           id="l1FUXJ1hLVVmgu7bOzFVREW"
           fill="#16a66a"
           transform="translate(304.53138)"><g
             id="g18"><path
               id="p17wd9ENz3"
               d="m 3916,4359 c -55,-4 -106,-11 -115,-14 -11,-4 19,-40 109,-130 117,-117 123,-125 111,-147 -19,-35 -35,-54 -51,-61 -8,-4 2,-5 23,-3 20,3 37,1 37,-2 0,-4 8,-8 18,-8 9,0 33,-4 52,-8 30,-6 27,-4 -17,18 -29,14 -53,29 -53,34 0,23 32,82 48,91 27,15 284,50 411,58 83,4 108,9 104,19 -9,25 32,35 78,19 66,-24 56,-11 -18,23 -144,65 -275,95 -495,112 -68,5 -127,9 -133,8 -5,0 -55,-4 -109,-9 z" /><path
               id="p17955JeVv"
               d="m 3649,4283 c -3,-19 3,-258 6,-262 2,-1 50,-3 107,-2 57,0 121,-3 142,-8 l 40,-10 -80,77 c -43,42 -109,108 -146,145 -38,37 -68,64 -69,60 z" /><path
               id="pzDZadEmO"
               d="m 3190,3493 c 0,-5 18,-21 40,-36 22,-16 40,-35 40,-43 0,-18 -8,-18 -26,1 -9,8 -13,15 -9,15 4,0 -1,7 -10,16 -28,28 -26,9 3,-25 26,-31 30,-33 50,-20 15,9 25,10 30,4 8,-11 52,-37 52,-31 0,3 -34,32 -75,65 -70,57 -95,71 -95,54 z" /><path
               id="p0D050AFR"
               d="m 3374,3361 c 3,-5 16,-11 28,-14 22,-6 22,-5 4,8 -22,17 -40,20 -32,6 z" /></g></g><g
           id="l6cBaOZ7nWPmzSGgr4Diyzx"
           fill="#0f9381"
           transform="translate(304.53138)"><g
             id="g19"><path
               id="p16AkBZhfj"
               d="m 3298,4338 c 7,-7 12,-21 12,-32 0,-18 2,-18 25,4 24,22 24,25 8,31 -10,4 -27,8 -37,8 -16,1 -17,-2 -8,-11 z" /><path
               id="p14glkXImN"
               d="m 3376,4171 -129,-129 64,-6 c 35,-3 94,-8 132,-10 l 67,-5 v 140 c 0,76 -1,139 -3,139 -1,0 -60,-58 -131,-129 z" /><path
               id="pFyKG6yw4"
               d="m 3650,4031 c 0,-12 12,-13 135,-12 44,1 97,-3 118,-8 31,-7 36,-7 27,4 -8,9 -47,13 -137,14 -70,1 -130,4 -135,7 -4,3 -8,0 -8,-5 z" /></g></g></g></g></g></svg>
